<svg version="1.1" id="Layer_1" xmlns="http://www.w3.org/2000/svg" xmlns:xlink="http://www.w3.org/1999/xlink" x="0px" y="0px"
	 width="100%" viewBox="0 0 3840 2160" enable-background="new 0 0 3840 2160" xml:space="preserve">
<path fill="#47704C" opacity="1.000000" stroke="none" 
	d="
M2584.000000,2162.000000 
	C1722.666870,2162.000000 862.333618,2162.000000 2.000346,2162.000000 
	C2.000231,1442.000244 2.000231,722.000549 2.000115,2.000424 
	C4.333050,2.000000 6.666100,2.000000 8.999150,2.000000 
	C1286.665649,2.000000 2564.332031,2.000000 3841.999023,2.000000 
	C3841.999268,721.999329 3841.999268,1441.998657 3841.999512,2161.999023 
	C3423.000000,2162.000000 3004.000000,2162.000000 2584.000000,2162.000000 
M1103.221680,1161.806885 
	C1123.732666,1210.873169 1144.275024,1259.926392 1164.746704,1309.009033 
	C1189.828369,1369.144775 1214.838623,1429.310181 1239.913696,1489.448730 
	C1243.140869,1497.188721 1246.570679,1504.844116 1250.597290,1514.131714 
	C1253.221313,1502.654053 1252.753662,673.348755 1250.610596,666.320129 
	C1232.643555,664.479919 905.565002,665.294495 897.481506,667.414673 
	C898.522827,670.529297 899.354248,673.677856 900.603699,676.650696 
	C912.829895,705.740234 925.240601,734.752625 937.376831,763.879456 
	C959.225464,816.315796 980.866699,868.838379 1002.700012,921.281006 
	C1017.639648,957.165222 1032.801392,992.956970 1047.785278,1028.822754 
	C1066.101807,1072.665527 1084.336426,1116.542603 1103.221680,1161.806885 
M295.679260,1506.380737 
	C295.848511,1507.635620 296.017761,1508.890503 296.244141,1510.568970 
	C302.096405,1501.119263 647.905396,674.957886 648.579346,666.657227 
	C636.324463,664.684326 303.367432,665.310242 295.668121,667.527161 
	C295.668121,946.515381 295.668121,1225.712036 295.679260,1506.380737 
M3155.462158,1242.414673 
	C3168.227295,1217.817627 3174.177734,1191.256104 3176.077637,1163.969849 
	C3177.981445,1136.627686 3175.150879,1109.556396 3165.639160,1083.517822 
	C3149.389404,1039.032104 3119.941895,1006.685120 3076.345459,987.981201 
	C3034.577637,970.061890 2991.376221,968.597107 2947.448486,978.714600 
	C2945.428467,979.179749 2943.208496,978.774414 2940.336914,978.774414 
	C2940.336914,974.578735 2940.336914,970.954529 2940.336914,967.330322 
	C2940.336914,925.663879 2940.345703,883.997437 2940.319580,842.330994 
	C2940.317627,839.005005 2940.103027,835.677612 2939.935303,832.353516 
	C2939.708984,827.869812 2937.186768,825.813721 2932.826904,825.758240 
	C2930.827637,825.732666 2928.828369,825.671265 2926.829102,825.670837 
	C2900.495850,825.664856 2874.162598,825.666809 2847.829346,825.666809 
	C2844.552979,825.666809 2841.276611,825.666809 2837.098877,825.666809 
	C2836.472656,830.424927 2835.570801,834.259827 2835.531982,838.103577 
	C2835.376709,853.420410 2835.503418,868.739990 2835.502197,884.058594 
	C2835.491211,1028.581665 2835.472900,1173.104858 2835.464600,1317.627930 
	C2835.463623,1334.129150 2836.303467,1335.128784 2852.187012,1339.627808 
	C2872.052490,1345.254761 2892.320312,1348.355469 2912.815430,1350.791260 
	C2936.732178,1353.633789 2960.675537,1354.296387 2984.471680,1351.854614 
	C3006.892090,1349.553833 3028.923828,1344.495117 3050.044434,1335.966553 
	C3095.820312,1317.481812 3131.972168,1288.222778 3155.462158,1242.414673 
M2360.337402,853.024292 
	C2360.336670,847.359741 2360.383789,841.694763 2360.324463,836.030823 
	C2360.219727,826.065430 2360.007080,825.725220 2350.361084,825.697571 
	C2322.706543,825.618347 2295.051270,825.641602 2267.396484,825.712830 
	C2264.529785,825.720215 2261.664551,826.319092 2257.662598,826.772156 
	C2257.662598,837.105225 2257.662842,846.684937 2257.662842,856.264587 
	C2257.662842,866.260315 2257.662842,876.256042 2257.662842,886.251770 
	C2257.662842,895.914307 2257.662842,905.576843 2257.662842,915.239380 
	C2257.662842,925.235107 2257.771240,935.232361 2257.631348,945.226135 
	C2257.498779,954.708740 2258.283203,964.261658 2257.076416,973.690613 
	C2254.594238,973.963257 2253.227051,974.428162 2251.985840,974.201660 
	C2237.749512,971.603943 2223.630371,972.911499 2209.298096,974.044617 
	C2176.672363,976.623962 2145.872803,984.912598 2117.269043,1000.675537 
	C2081.810303,1020.216125 2055.033203,1048.189941 2038.234985,1085.223511 
	C2024.706787,1115.048218 2019.266968,1146.310181 2021.507080,1179.100952 
	C2022.893799,1199.398682 2025.492798,1219.290649 2032.231201,1238.592285 
	C2045.719849,1277.229736 2069.858887,1306.954102 2105.486816,1327.230103 
	C2137.789551,1345.613403 2173.004395,1352.598511 2209.683105,1353.191772 
	C2229.595947,1353.514038 2249.348145,1351.601685 2269.143555,1348.745850 
	C2298.617188,1344.494019 2326.814697,1336.372681 2354.283447,1325.272949 
	C2363.874756,1321.397217 2364.390381,1319.837646 2363.650146,1309.496948 
	C2362.346924,1291.293701 2360.518311,1273.065308 2360.481689,1254.844238 
	C2360.213867,1121.568359 2360.337402,988.291687 2360.337402,853.024292 
M1577.591309,1345.674316 
	C1601.914917,1345.673950 1626.238647,1345.699219 1650.562256,1345.661377 
	C1661.141113,1345.645020 1662.643677,1344.596313 1666.077637,1334.091919 
	C1674.739380,1307.595459 1683.259521,1281.052856 1691.885864,1254.544800 
	C1694.326538,1247.044434 1696.938110,1239.599854 1699.284790,1232.679810 
	C1700.874146,1232.205444 1701.505371,1231.852783 1702.137085,1231.851929 
	C1754.780762,1231.780518 1807.424683,1231.775269 1860.068115,1231.626343 
	C1864.974121,1231.612549 1866.658569,1233.726562 1868.173706,1238.267212 
	C1878.786377,1270.074097 1889.745972,1301.766479 1900.777832,1333.431519 
	C1905.009766,1345.578369 1905.415039,1345.661255 1917.834595,1345.668823 
	C1945.156982,1345.685425 1972.479248,1345.687622 1999.801636,1345.668091 
	C2013.488403,1345.658325 2014.404663,1344.363281 2009.770752,1331.318237 
	C1991.770630,1280.645996 1973.664185,1230.011230 1955.737793,1179.312988 
	C1936.694214,1125.455200 1917.892578,1071.511719 1898.830811,1017.660461 
	C1881.763062,969.442627 1864.486572,921.298706 1847.298096,873.123596 
	C1844.440186,865.113220 1843.746826,864.395020 1835.162842,864.372803 
	C1799.177612,864.279541 1763.191772,864.281982 1727.206543,864.370911 
	C1718.704834,864.391907 1716.891113,866.188599 1716.011230,874.870483 
	C1715.442627,880.482727 1716.085205,886.333191 1714.768188,891.731140 
	C1711.556763,904.893372 1708.051392,918.033508 1703.720703,930.863953 
	C1688.537964,975.843811 1673.043457,1020.719177 1657.504517,1065.577881 
	C1637.176147,1124.262939 1616.682007,1182.890625 1596.280884,1241.550415 
	C1585.595581,1272.274048 1574.964111,1303.016113 1564.291016,1333.743774 
	C1561.627686,1341.411499 1563.726685,1344.819580 1571.764282,1345.637085 
	C1573.083984,1345.771240 1574.427979,1345.667480 1577.591309,1345.674316 
M2769.604004,1095.678589 
	C2765.520508,1085.508911 2762.162598,1074.971680 2757.228027,1065.233276 
	C2736.381592,1024.092041 2704.261963,995.706116 2659.956543,981.954102 
	C2633.716553,973.809387 2607.045166,970.515991 2579.384033,973.914307 
	C2563.763184,975.833374 2548.403076,978.413940 2533.791260,983.766846 
	C2485.918457,1001.305054 2452.533936,1034.345825 2432.439697,1081.010254 
	C2419.414307,1111.259155 2415.707520,1143.028320 2416.978760,1175.651001 
	C2418.504639,1214.819336 2429.534180,1250.975586 2452.010986,1283.134033 
	C2481.527832,1325.364868 2523.643311,1346.427002 2573.820801,1352.091797 
	C2596.272705,1354.626343 2618.751465,1353.471313 2641.139160,1348.560547 
	C2678.229004,1340.425171 2709.297363,1322.557251 2734.043701,1293.960571 
	C2765.758545,1257.310547 2777.612061,1213.256104 2779.489990,1166.059937 
	C2780.418701,1142.723999 2776.373779,1119.738159 2769.604004,1095.678589 
M3530.593506,1058.554932 
	C3525.687256,1049.891968 3521.443848,1040.763794 3515.750977,1032.652954 
	C3498.406982,1007.943176 3475.317139,990.817566 3446.416748,981.434692 
	C3419.045898,972.548279 3391.176758,970.213501 3362.877197,974.567993 
	C3305.215820,983.440735 3262.556641,1014.152466 3236.235596,1065.915771 
	C3216.247314,1105.224609 3208.901367,1147.328003 3213.979980,1191.575928 
	C3217.084961,1218.624756 3223.679688,1244.458618 3236.713135,1268.316528 
	C3249.691895,1292.075562 3267.592773,1311.475220 3290.856934,1325.778564 
	C3322.997559,1345.539795 3358.476562,1352.558472 3395.511963,1353.189819 
	C3416.420410,1353.546387 3437.211670,1352.028198 3457.983154,1348.677979 
	C3475.253418,1345.892212 3491.432373,1340.395752 3507.498291,1334.054199 
	C3514.737793,1331.196411 3518.136230,1326.492188 3517.871582,1318.032349 
	C3517.247314,1298.063721 3517.683105,1278.062378 3517.654297,1258.074341 
	C3517.650879,1255.751953 3518.054688,1253.115723 3517.104248,1251.204468 
	C3516.305420,1249.598145 3513.903564,1248.161255 3512.035156,1247.897583 
	C3510.300537,1247.652832 3508.330078,1249.050903 3506.468750,1249.740234 
	C3468.632812,1263.753418 3429.753418,1267.954346 3389.905029,1261.517456 
	C3376.044922,1259.278564 3362.879883,1254.560181 3351.149414,1246.563477 
	C3331.781250,1233.360107 3321.832764,1214.825684 3319.518066,1190.337158 
	C3324.297119,1190.337158 3328.212158,1190.337036 3332.126953,1190.337036 
	C3385.761719,1190.336914 3439.396729,1190.470581 3493.030518,1190.242188 
	C3506.291504,1190.185791 3519.548828,1188.978271 3532.805176,1188.250732 
	C3538.055176,1187.962524 3541.571289,1185.542603 3542.559326,1180.061035 
	C3543.028809,1177.456055 3544.138672,1174.909790 3544.250244,1172.306519 
	C3544.847656,1158.367554 3545.082275,1144.412842 3545.702637,1130.475220 
	C3546.804199,1105.722656 3540.550537,1082.518677 3530.593506,1058.554932 
M794.625000,1374.288574 
	C813.130920,1420.783081 831.636902,1467.277466 849.901062,1513.164551 
	C884.348389,1515.323975 991.123474,1514.303711 998.565918,1511.852539 
	C994.810364,1500.182251 778.410278,982.961060 772.755066,978.370483 
	C772.011841,979.472107 771.085510,980.464478 770.586670,981.638367 
	C720.561890,1099.356689 670.566650,1217.087402 620.597595,1334.829468 
	C619.692871,1336.961060 619.105713,1339.229736 618.425354,1341.451294 
	C618.350281,1341.696411 618.613770,1342.066040 618.765930,1342.353760 
	C618.911133,1342.628052 619.116028,1342.870605 619.674866,1343.673096 
	C634.930725,1343.673096 650.572510,1343.672729 666.214355,1343.672974 
	C702.196167,1343.673584 738.178711,1343.783691 774.159241,1343.570068 
	C780.313721,1343.533569 784.008484,1345.083374 785.906982,1351.451660 
	C788.080688,1358.742798 791.386230,1365.696533 794.625000,1374.288574 
z"/>
<path fill="#FA0F00" opacity="1.000000" stroke="none" 
	d="
M1102.914062,1161.105835 
	C1084.336426,1116.542603 1066.101807,1072.665527 1047.785278,1028.822754 
	C1032.801392,992.956970 1017.639648,957.165222 1002.700012,921.281006 
	C980.866699,868.838379 959.225464,816.315796 937.376831,763.879456 
	C925.240601,734.752625 912.829895,705.740234 900.603699,676.650696 
	C899.354248,673.677856 898.522827,670.529297 897.481506,667.414673 
	C905.565002,665.294495 1232.643555,664.479919 1250.610596,666.320129 
	C1252.753662,673.348755 1253.221313,1502.654053 1250.597290,1514.131714 
	C1246.570679,1504.844116 1243.140869,1497.188721 1239.913696,1489.448730 
	C1214.838623,1429.310181 1189.828369,1369.144775 1164.746704,1309.009033 
	C1144.275024,1259.926392 1123.732666,1210.873169 1102.914062,1161.105835 
z"/>
<path fill="#FA0F00" opacity="1.000000" stroke="none" 
	d="
M295.673706,1505.644775 
	C295.668121,1225.712036 295.668121,946.515381 295.668121,667.527161 
	C303.367432,665.310242 636.324463,664.684326 648.579346,666.657227 
	C647.905396,674.957886 302.096405,1501.119263 296.244141,1510.568970 
	C296.017761,1508.890503 295.848511,1507.635620 295.673706,1505.644775 
z"/>
<path fill="#F90F00" opacity="1.000000" stroke="none" 
	d="
M3155.142090,1243.089478 
	C3131.972168,1288.222778 3095.820312,1317.481812 3050.044434,1335.966553 
	C3028.923828,1344.495117 3006.892090,1349.553833 2984.471680,1351.854614 
	C2960.675537,1354.296387 2936.732178,1353.633789 2912.815430,1350.791260 
	C2892.320312,1348.355469 2872.052490,1345.254761 2852.187012,1339.627808 
	C2836.303467,1335.128784 2835.463623,1334.129150 2835.464600,1317.627930 
	C2835.472900,1173.104858 2835.491211,1028.581665 2835.502197,884.058594 
	C2835.503418,868.739990 2835.376709,853.420410 2835.531982,838.103577 
	C2835.570801,834.259827 2836.472656,830.424927 2837.098877,825.666809 
	C2841.276611,825.666809 2844.552979,825.666809 2847.829346,825.666809 
	C2874.162598,825.666809 2900.495850,825.664856 2926.829102,825.670837 
	C2928.828369,825.671265 2930.827637,825.732666 2932.826904,825.758240 
	C2937.186768,825.813721 2939.708984,827.869812 2939.935303,832.353516 
	C2940.103027,835.677612 2940.317627,839.005005 2940.319580,842.330994 
	C2940.345703,883.997437 2940.336914,925.663879 2940.336914,967.330322 
	C2940.336914,970.954529 2940.336914,974.578735 2940.336914,978.774414 
	C2943.208496,978.774414 2945.428467,979.179749 2947.448486,978.714600 
	C2991.376221,968.597107 3034.577637,970.061890 3076.345459,987.981201 
	C3119.941895,1006.685120 3149.389404,1039.032104 3165.639160,1083.517822 
	C3175.150879,1109.556396 3177.981445,1136.627686 3176.077637,1163.969849 
	C3174.177734,1191.256104 3168.227295,1217.817627 3155.142090,1243.089478 
M3060.753418,1207.636108 
	C3072.077393,1178.488770 3073.571533,1148.826660 3064.651855,1118.874023 
	C3059.166260,1100.453369 3048.673340,1085.565308 3032.141602,1074.993286 
	C3020.885254,1067.794678 3008.579102,1064.895386 2995.654053,1062.833252 
	C2976.848877,1059.832886 2958.828125,1062.841431 2940.896484,1067.189453 
	C2940.896484,1132.920654 2940.896484,1197.766602 2940.896484,1262.917725 
	C2943.275146,1263.449585 2945.173340,1264.222900 2947.079102,1264.243164 
	C2959.013672,1264.369995 2971.076660,1265.456421 2982.861816,1264.132446 
	C3018.585938,1260.119385 3045.027344,1242.375732 3060.753418,1207.636108 
z"/>
<path fill="#F90F00" opacity="1.000000" stroke="none" 
	d="
M2360.337402,854.019775 
	C2360.337402,988.291687 2360.213867,1121.568359 2360.481689,1254.844238 
	C2360.518311,1273.065308 2362.346924,1291.293701 2363.650146,1309.496948 
	C2364.390381,1319.837646 2363.874756,1321.397217 2354.283447,1325.272949 
	C2326.814697,1336.372681 2298.617188,1344.494019 2269.143555,1348.745850 
	C2249.348145,1351.601685 2229.595947,1353.514038 2209.683105,1353.191772 
	C2173.004395,1352.598511 2137.789551,1345.613403 2105.486816,1327.230103 
	C2069.858887,1306.954102 2045.719849,1277.229736 2032.231201,1238.592285 
	C2025.492798,1219.290649 2022.893799,1199.398682 2021.507080,1179.100952 
	C2019.266968,1146.310181 2024.706787,1115.048218 2038.234985,1085.223511 
	C2055.033203,1048.189941 2081.810303,1020.216125 2117.269043,1000.675537 
	C2145.872803,984.912598 2176.672363,976.623962 2209.298096,974.044617 
	C2223.630371,972.911499 2237.749512,971.603943 2251.985840,974.201660 
	C2253.227051,974.428162 2254.594238,973.963257 2257.076416,973.690613 
	C2258.283203,964.261658 2257.498779,954.708740 2257.631348,945.226135 
	C2257.771240,935.232361 2257.662842,925.235107 2257.662842,915.239380 
	C2257.662842,905.576843 2257.662842,895.914307 2257.662842,886.251770 
	C2257.662842,876.256042 2257.662842,866.260315 2257.662842,856.264587 
	C2257.662842,846.684937 2257.662598,837.105225 2257.662598,826.772156 
	C2261.664551,826.319092 2264.529785,825.720215 2267.396484,825.712830 
	C2295.051270,825.641602 2322.706543,825.618347 2350.361084,825.697571 
	C2360.007080,825.725220 2360.219727,826.065430 2360.324463,836.030823 
	C2360.383789,841.694763 2360.336670,847.359741 2360.337402,854.019775 
M2250.572510,1061.771484 
	C2226.647705,1057.392212 2203.500488,1060.497803 2181.646729,1070.679077 
	C2157.274414,1082.033569 2140.957520,1100.598877 2132.984375,1126.843994 
	C2124.934570,1153.340820 2126.654297,1179.363037 2134.534912,1205.187988 
	C2140.241943,1223.890381 2151.442139,1239.188477 2168.415527,1249.346069 
	C2191.907227,1263.404419 2217.623779,1266.444702 2244.241211,1262.277710 
	C2257.752197,1260.162598 2257.671143,1259.607788 2257.671875,1246.100464 
	C2257.674316,1189.492554 2257.673096,1132.884521 2257.671387,1076.276611 
	C2257.671143,1073.945801 2257.457520,1071.595337 2257.687012,1069.288330 
	C2258.101807,1065.119019 2255.735840,1063.253540 2250.572510,1061.771484 
z"/>
<path fill="#F91001" opacity="1.000000" stroke="none" 
	d="
M1576.676025,1345.674072 
	C1574.427979,1345.667480 1573.083984,1345.771240 1571.764282,1345.637085 
	C1563.726685,1344.819580 1561.627686,1341.411499 1564.291016,1333.743774 
	C1574.964111,1303.016113 1585.595581,1272.274048 1596.280884,1241.550415 
	C1616.682007,1182.890625 1637.176147,1124.262939 1657.504517,1065.577881 
	C1673.043457,1020.719177 1688.537964,975.843811 1703.720703,930.863953 
	C1708.051392,918.033508 1711.556763,904.893372 1714.768188,891.731140 
	C1716.085205,886.333191 1715.442627,880.482727 1716.011230,874.870483 
	C1716.891113,866.188599 1718.704834,864.391907 1727.206543,864.370911 
	C1763.191772,864.281982 1799.177612,864.279541 1835.162842,864.372803 
	C1843.746826,864.395020 1844.440186,865.113220 1847.298096,873.123596 
	C1864.486572,921.298706 1881.763062,969.442627 1898.830811,1017.660461 
	C1917.892578,1071.511719 1936.694214,1125.455200 1955.737793,1179.312988 
	C1973.664185,1230.011230 1991.770630,1280.645996 2009.770752,1331.318237 
	C2014.404663,1344.363281 2013.488403,1345.658325 1999.801636,1345.668091 
	C1972.479248,1345.687622 1945.156982,1345.685425 1917.834595,1345.668823 
	C1905.415039,1345.661255 1905.009766,1345.578369 1900.777832,1333.431519 
	C1889.745972,1301.766479 1878.786377,1270.074097 1868.173706,1238.267212 
	C1866.658569,1233.726562 1864.974121,1231.612549 1860.068115,1231.626343 
	C1807.424683,1231.775269 1754.780762,1231.780518 1702.137085,1231.851929 
	C1701.505371,1231.852783 1700.874146,1232.205444 1699.284790,1232.679810 
	C1696.938110,1239.599854 1694.326538,1247.044434 1691.885864,1254.544800 
	C1683.259521,1281.052856 1674.739380,1307.595459 1666.077637,1334.091919 
	C1662.643677,1344.596313 1661.141113,1345.645020 1650.562256,1345.661377 
	C1626.238647,1345.699219 1601.914917,1345.673950 1576.676025,1345.674072 
M1777.056641,974.070923 
	C1769.009766,1001.103333 1761.124878,1028.185303 1752.870605,1055.154297 
	C1744.572144,1082.267334 1735.126831,1109.036133 1727.120361,1136.782959 
	C1730.240479,1137.210449 1731.859253,1137.630859 1733.476318,1137.624634 
	C1767.416992,1137.494507 1801.357422,1137.317139 1835.297852,1137.127563 
	C1835.590698,1137.125854 1835.941772,1136.884766 1836.157227,1136.654175 
	C1836.373169,1136.423096 1836.452759,1136.064941 1837.007446,1134.861572 
	C1819.005005,1076.876709 1800.784302,1018.188599 1782.563599,959.500488 
	C1781.958618,959.497314 1781.353638,959.494141 1780.748779,959.490967 
	C1779.674072,963.839722 1778.599365,968.188477 1777.056641,974.070923 
z"/>
<path fill="#F91000" opacity="1.000000" stroke="none" 
	d="
M2769.845947,1096.448853 
	C2776.373779,1119.738159 2780.418701,1142.723999 2779.489990,1166.059937 
	C2777.612061,1213.256104 2765.758545,1257.310547 2734.043701,1293.960571 
	C2709.297363,1322.557251 2678.229004,1340.425171 2641.139160,1348.560547 
	C2618.751465,1353.471313 2596.272705,1354.626343 2573.820801,1352.091797 
	C2523.643311,1346.427002 2481.527832,1325.364868 2452.010986,1283.134033 
	C2429.534180,1250.975586 2418.504639,1214.819336 2416.978760,1175.651001 
	C2415.707520,1143.028320 2419.414307,1111.259155 2432.439697,1081.010254 
	C2452.533936,1034.345825 2485.918457,1001.305054 2533.791260,983.766846 
	C2548.403076,978.413940 2563.763184,975.833374 2579.384033,973.914307 
	C2607.045166,970.515991 2633.716553,973.809387 2659.956543,981.954102 
	C2704.261963,995.706116 2736.381592,1024.092041 2757.228027,1065.233276 
	C2762.162598,1074.971680 2765.520508,1085.508911 2769.845947,1096.448853 
M2523.687744,1185.039429 
	C2524.493164,1198.864014 2528.680420,1211.833252 2534.690430,1224.097900 
	C2546.121338,1247.424927 2563.891113,1262.171509 2590.725830,1264.880737 
	C2618.126465,1267.647095 2639.617920,1258.417847 2654.683594,1235.208984 
	C2669.756836,1211.988403 2673.699951,1185.610840 2673.218506,1158.901123 
	C2672.905273,1141.507812 2669.927246,1124.012573 2663.154785,1107.420898 
	C2654.215576,1085.521484 2639.961426,1069.860474 2616.634277,1063.195801 
	C2594.394287,1056.841309 2573.983154,1059.784790 2555.574707,1074.113525 
	C2539.552734,1086.584473 2531.224121,1103.962646 2526.651855,1122.978149 
	C2521.903076,1142.728027 2520.117432,1162.916016 2523.687744,1185.039429 
z"/>
<path fill="#F91000" opacity="1.000000" stroke="none" 
	d="
M3530.928223,1059.234863 
	C3540.550537,1082.518677 3546.804199,1105.722656 3545.702637,1130.475220 
	C3545.082275,1144.412842 3544.847656,1158.367554 3544.250244,1172.306519 
	C3544.138672,1174.909790 3543.028809,1177.456055 3542.559326,1180.061035 
	C3541.571289,1185.542603 3538.055176,1187.962524 3532.805176,1188.250732 
	C3519.548828,1188.978271 3506.291504,1190.185791 3493.030518,1190.242188 
	C3439.396729,1190.470581 3385.761719,1190.336914 3332.126953,1190.337036 
	C3328.212158,1190.337036 3324.297119,1190.337158 3319.518066,1190.337158 
	C3321.832764,1214.825684 3331.781250,1233.360107 3351.149414,1246.563477 
	C3362.879883,1254.560181 3376.044922,1259.278564 3389.905029,1261.517456 
	C3429.753418,1267.954346 3468.632812,1263.753418 3506.468750,1249.740234 
	C3508.330078,1249.050903 3510.300537,1247.652832 3512.035156,1247.897583 
	C3513.903564,1248.161255 3516.305420,1249.598145 3517.104248,1251.204468 
	C3518.054688,1253.115723 3517.650879,1255.751953 3517.654297,1258.074341 
	C3517.683105,1278.062378 3517.247314,1298.063721 3517.871582,1318.032349 
	C3518.136230,1326.492188 3514.737793,1331.196411 3507.498291,1334.054199 
	C3491.432373,1340.395752 3475.253418,1345.892212 3457.983154,1348.677979 
	C3437.211670,1352.028198 3416.420410,1353.546387 3395.511963,1353.189819 
	C3358.476562,1352.558472 3322.997559,1345.539795 3290.856934,1325.778564 
	C3267.592773,1311.475220 3249.691895,1292.075562 3236.713135,1268.316528 
	C3223.679688,1244.458618 3217.084961,1218.624756 3213.979980,1191.575928 
	C3208.901367,1147.328003 3216.247314,1105.224609 3236.235596,1065.915771 
	C3262.556641,1014.152466 3305.215820,983.440735 3362.877197,974.567993 
	C3391.176758,970.213501 3419.045898,972.548279 3446.416748,981.434692 
	C3475.317139,990.817566 3498.406982,1007.943176 3515.750977,1032.652954 
	C3521.443848,1040.763794 3525.687256,1049.891968 3530.928223,1059.234863 
M3343.476562,1070.410889 
	C3329.861328,1082.793823 3321.247314,1097.600952 3319.780273,1117.301636 
	C3363.177979,1117.014038 3405.236816,1117.995239 3447.072266,1116.697021 
	C3449.536621,1100.094727 3439.298828,1078.923828 3425.658691,1067.776001 
	C3406.313721,1051.965332 3364.825928,1051.772461 3343.476562,1070.410889 
z"/>
<path fill="#F91000" opacity="1.000000" stroke="none" 
	d="
M794.412537,1373.542725 
	C791.386230,1365.696533 788.080688,1358.742798 785.906982,1351.451660 
	C784.008484,1345.083374 780.313721,1343.533569 774.159241,1343.570068 
	C738.178711,1343.783691 702.196167,1343.673584 666.214355,1343.672974 
	C650.572510,1343.672729 634.930725,1343.673096 619.674866,1343.673096 
	C619.116028,1342.870605 618.911133,1342.628052 618.765930,1342.353760 
	C618.613770,1342.066040 618.350281,1341.696411 618.425354,1341.451294 
	C619.105713,1339.229736 619.692871,1336.961060 620.597595,1334.829468 
	C670.566650,1217.087402 720.561890,1099.356689 770.586670,981.638367 
	C771.085510,980.464478 772.011841,979.472107 772.755066,978.370483 
	C778.410278,982.961060 994.810364,1500.182251 998.565918,1511.852539 
	C991.123474,1514.303711 884.348389,1515.323975 849.901062,1513.164551 
	C831.636902,1467.277466 813.130920,1420.783081 794.412537,1373.542725 
z"/>
<path fill="#496F4B" opacity="1.000000" stroke="none" 
	d="
M3060.372559,1208.300781 
	C3045.027344,1242.375732 3018.585938,1260.119385 2982.861816,1264.132446 
	C2971.076660,1265.456421 2959.013672,1264.369995 2947.079102,1264.243164 
	C2945.173340,1264.222900 2943.275146,1263.449585 2940.896484,1262.917725 
	C2940.896484,1197.766602 2940.896484,1132.920654 2940.896484,1067.189453 
	C2958.828125,1062.841431 2976.848877,1059.832886 2995.654053,1062.833252 
	C3008.579102,1064.895386 3020.885254,1067.794678 3032.141602,1074.993286 
	C3048.673340,1085.565308 3059.166260,1100.453369 3064.651855,1118.874023 
	C3073.571533,1148.826660 3072.077393,1178.488770 3060.372559,1208.300781 
z"/>
<path fill="#486F4B" opacity="1.000000" stroke="none" 
	d="
M2251.423340,1061.944214 
	C2255.735840,1063.253540 2258.101807,1065.119019 2257.687012,1069.288330 
	C2257.457520,1071.595337 2257.671143,1073.945801 2257.671387,1076.276611 
	C2257.673096,1132.884521 2257.674316,1189.492554 2257.671875,1246.100464 
	C2257.671143,1259.607788 2257.752197,1260.162598 2244.241211,1262.277710 
	C2217.623779,1266.444702 2191.907227,1263.404419 2168.415527,1249.346069 
	C2151.442139,1239.188477 2140.241943,1223.890381 2134.534912,1205.187988 
	C2126.654297,1179.363037 2124.934570,1153.340820 2132.984375,1126.843994 
	C2140.957520,1100.598877 2157.274414,1082.033569 2181.646729,1070.679077 
	C2203.500488,1060.497803 2226.647705,1057.392212 2251.423340,1061.944214 
z"/>
<path fill="#4A6E4B" opacity="1.000000" stroke="none" 
	d="
M1777.290527,973.304077 
	C1778.599365,968.188477 1779.674072,963.839722 1780.748779,959.490967 
	C1781.353638,959.494141 1781.958618,959.497314 1782.563599,959.500488 
	C1800.784302,1018.188599 1819.005005,1076.876709 1837.007446,1134.861572 
	C1836.452759,1136.064941 1836.373169,1136.423096 1836.157227,1136.654175 
	C1835.941772,1136.884766 1835.590698,1137.125854 1835.297852,1137.127563 
	C1801.357422,1137.317139 1767.416992,1137.494507 1733.476318,1137.624634 
	C1731.859253,1137.630859 1730.240479,1137.210449 1727.120361,1136.782959 
	C1735.126831,1109.036133 1744.572144,1082.267334 1752.870605,1055.154297 
	C1761.124878,1028.185303 1769.009766,1001.103333 1777.290527,973.304077 
z"/>
<path fill="#486F4B" opacity="1.000000" stroke="none" 
	d="
M2523.676758,1184.129395 
	C2520.117432,1162.916016 2521.903076,1142.728027 2526.651855,1122.978149 
	C2531.224121,1103.962646 2539.552734,1086.584473 2555.574707,1074.113525 
	C2573.983154,1059.784790 2594.394287,1056.841309 2616.634277,1063.195801 
	C2639.961426,1069.860474 2654.215576,1085.521484 2663.154785,1107.420898 
	C2669.927246,1124.012573 2672.905273,1141.507812 2673.218506,1158.901123 
	C2673.699951,1185.610840 2669.756836,1211.988403 2654.683594,1235.208984 
	C2639.617920,1258.417847 2618.126465,1267.647095 2590.725830,1264.880737 
	C2563.891113,1262.171509 2546.121338,1247.424927 2534.690430,1224.097900 
	C2528.680420,1211.833252 2524.493164,1198.864014 2523.676758,1184.129395 
z"/>
<path fill="#4C6D4A" opacity="1.000000" stroke="none" 
	d="
M3344.087646,1070.031982 
	C3364.825928,1051.772461 3406.313721,1051.965332 3425.658691,1067.776001 
	C3439.298828,1078.923828 3449.536621,1100.094727 3447.072266,1116.697021 
	C3405.236816,1117.995239 3363.177979,1117.014038 3319.780273,1117.301636 
	C3321.247314,1097.600952 3329.861328,1082.793823 3344.087646,1070.031982 
z"/>
</svg>