<?xml version="1.0" encoding="utf-8"?>
<!-- Generator: Adobe Illustrator 23.0.6, SVG Export Plug-In . SVG Version: 6.00 Build 0)  -->
<svg version="1.2" baseProfile="tiny" id="Layer_1" xmlns="http://www.w3.org/2000/svg" xmlns:xlink="http://www.w3.org/1999/xlink"
	 x="0px" y="0px" viewBox="0 0 512 512" xml:space="preserve">
<g>
	<g>
		<path fill="#EFCACF" d="M322.64,180.59c-58.05-24.98-67.64-5.03-89.79-6.41c-16.67-1.04-30.76-16.58-84.19,6.41
			c-58.47,25.17-84.04,77.15-84.04,140.78c0,67.57,22.93,125.01,110.08,147.98c28.84,7.6,39.48-6.08,60.95-6.08
			c21.47,0,32.11,13.68,60.95,6.08c87.15-22.97,110.08-80.41,110.08-147.98C406.68,257.74,381.11,205.76,322.64,180.59z"/>
	</g>
	<g>
		<path fill="#CDD989" d="M242.91,93.03c1.98-32.08,37.23-66.44,106.45-47.45c34.31,9.41,98,60.09,98,60.09
			s-49.45,47.06-105.82,51.77C289.27,161.81,240.93,125.12,242.91,93.03z"/>
	</g>
	<g>
		<g>
			<g>
				<path fill="#464646" d="M280.02,475.88c-9.33,0-16.66-2.25-23.84-4.45c-6.61-2.03-12.85-3.94-20.54-3.94
					c-7.69,0-13.93,1.92-20.54,3.94c-11.14,3.42-22.66,6.96-41.48,1.99C96.38,453.07,60.41,404.75,60.41,321.37
					c0-70.25,29.94-120.27,86.59-144.65c42.22-18.17,61.22-12.9,75.1-9.06c4.04,1.12,7.54,2.09,11.02,2.31
					c5.94,0.37,10.94-0.99,16.75-2.57c14.43-3.91,32.39-8.79,74.44,9.32c56.65,24.38,86.59,74.4,86.59,144.65
					c0,83.38-35.98,131.7-113.22,152.06C290.97,475.19,285.18,475.88,280.02,475.88z M235.65,459.06c8.95,0,16.1,2.19,23.01,4.31
					c10.47,3.22,20.36,6.25,36.86,1.9c73.96-19.49,106.94-63.88,106.94-143.91c0-66.62-28.18-113.96-81.49-136.91l0,0
					c-39.35-16.93-55.05-12.68-68.9-8.93c-6.26,1.7-12.14,3.32-19.48,2.85c-4.36-0.27-8.43-1.4-12.75-2.6
					c-13.38-3.71-30.03-8.32-69.52,8.68c-53.31,22.95-81.49,70.29-81.49,136.91c0,80.03,32.98,124.42,106.94,143.91
					c16.5,4.35,26.39,1.31,36.86-1.9C219.55,461.25,226.7,459.06,235.65,459.06z"/>
			</g>
			<g>
				<path fill="#CDD989" d="M235.45,171.93c2.58-0.03,5.01-0.35,7.39-0.84c0-0.23,0.01-0.46,0.01-0.7
					c0-33.91-8.42-64.38-21.79-85.37h-28.4C221.06,108.32,231.76,143.26,235.45,171.93z"/>
			</g>
			<g>
				<path fill="#464646" d="M235.45,176.14c-2.12,0-3.91-1.57-4.18-3.68c-3.3-25.66-13.14-61.1-41.28-84.19
					c-1.38-1.13-1.9-3-1.3-4.68c0.6-1.68,2.19-2.8,3.97-2.8h28.4c1.44,0,2.78,0.74,3.56,1.95c14.26,22.4,22.44,54.34,22.44,87.64
					l-0.01,0.45c0,2-1.41,3.97-3.37,4.38c-2.88,0.6-5.56,0.9-8.2,0.93C235.48,176.14,235.46,176.14,235.45,176.14z M203.5,89.23
					c17.87,18.21,29.84,43.71,35.02,74.66c-0.97-28.5-8.04-55.21-19.8-74.66H203.5z"/>
			</g>
			<g>
				<g>
					<path fill="#464646" d="M333,162.01c-28.31,0-56.77-11.04-75.99-29.85c-12.61-12.34-19.12-26.33-18.31-39.39
						c1.03-16.71,10.02-32.29,24.65-42.75c21.13-15.1,52.08-18.12,87.12-8.5c34.75,9.53,96.88,58.77,99.51,60.86
						c0.95,0.76,1.53,1.89,1.59,3.11c0.05,1.22-0.42,2.4-1.31,3.24c-2.06,1.96-51.18,48.13-108.37,52.91
						C338.94,161.89,335.97,162.01,333,162.01z M312.22,44.42c-17.35,0-32.39,4.19-43.97,12.46C255.7,65.86,248,79.13,247.12,93.29
						c-0.65,10.57,4.96,22.24,15.79,32.85c19.24,18.82,49.96,29.47,78.28,27.1c45.61-3.81,87.26-36.75,99.59-47.35
						c-14.35-11.06-64.27-48.49-92.53-56.25C335.5,46.15,323.38,44.42,312.22,44.42z"/>
				</g>
				<g>
					<path fill="#464646" d="M366.19,109.51c-0.11,0-0.22-0.01-0.33-0.01l-102.38-8.05c-2.32-0.18-4.06-2.21-3.87-4.53
						c0.18-2.32,2.22-4.06,4.53-3.87l102.38,8.05c2.32,0.18,4.06,2.21,3.87,4.53C370.21,107.84,368.37,109.51,366.19,109.51z"/>
				</g>
			</g>
		</g>
	</g>
</g>
</svg>
