<?xml version="1.0" encoding="utf-8"?>
<!-- Generator: Adobe Illustrator 23.0.6, SVG Export Plug-In . SVG Version: 6.00 Build 0)  -->
<svg version="1.2" baseProfile="tiny" id="Layer_1" xmlns="http://www.w3.org/2000/svg" xmlns:xlink="http://www.w3.org/1999/xlink"
	 x="0px" y="0px" viewBox="0 0 512 512" xml:space="preserve">
<g>
	<g>
		<path fill="#F9E5A8" d="M449.52,130.93c41.45,50.05,34.58,191.86-86.69,275.23c-168.21,115.65-288.65,48.75-320.74,2.07
			c-4.91-7.15-1.06-13.79,0.28-19.54c1.86-8.01,4.03-14.49,16.85-20.03c10.35-4.46,24.04-8.17,40.72-11.18
			c44.85-8.09,113.73-7.41,169.77-45.94c60.28-41.45,84.86-81.18,92.39-151.38c1.1-10.21,8.03-33.91,3.17-54.96
			c-5.34-23.13-23.78-32.56-19.46-42.53c6.03-13.86,31.84-29.71,45.44-17.25c5.66,5.19-3.94,14.59,12.37,38.31
			C418.03,104.69,436.47,115.17,449.52,130.93z"/>
	</g>
	<g>
		<path fill="#F9E5A8" d="M303.29,328.1c-75.25,51.73-139.8,63.97-173.16,65.25c-58.74,2.24-88.49-1.48-87.75-4.66
			c1.86-8.01,4.03-14.49,16.85-20.03c10.35-4.46,24.04-8.17,40.72-11.18c44.85-8.09,113.73-7.41,169.77-45.94
			c60.28-41.45,84.86-81.18,92.39-151.38c1.1-10.21,8.03-33.91,3.17-54.96c-5.34-23.13-23.78-32.56-19.46-42.53
			c1.98-4.54,6.08-9.3,11.19-13.21C367.46,41.45,449.91,227.29,303.29,328.1z"/>
	</g>
	<g>
		<g>
			<path fill="#464646" d="M182.32,474.87c-11.64,0-22.18-0.88-31.57-2.26c-57.45-8.44-96.47-38.55-112.44-61.78
				c-5.19-7.56-2.97-14.72-1.34-19.94c0.35-1.11,0.69-2.19,0.93-3.24c2.09-8.99,5-16.94,19.49-23.2
				c10.47-4.51,24.5-8.37,41.73-11.48c10.13-1.83,21.45-3.21,33.43-4.67c40.96-5,91.94-11.23,134.55-40.53
				c59.42-40.85,83.09-79.61,90.43-148.09c0.27-2.51,0.85-5.65,1.51-9.3c2.1-11.49,5.28-28.85,1.75-44.14
				c-2.46-10.64-8.06-18.32-12.57-24.5c-5.06-6.94-9.84-13.49-6.62-20.89c4.63-10.65,18.22-21.11,30.94-23.81
				c8.68-1.84,16.22-0.11,21.81,5c3.59,3.29,3.59,7.41,3.59,11.41c0,5.88,0,13.94,9.46,27.69c8.08,11.76,17.55,20.14,26.7,28.25
				c6.83,6.06,13.28,11.77,18.95,18.62c19.73,23.83,28.14,66.28,21.94,110.77c-9.39,67.36-49.32,129.76-109.57,171.17
				C290.98,461.12,228.22,474.87,182.32,474.87z M379.04,45.49c-1.44,0-2.97,0.17-4.59,0.52c-10.8,2.3-21.35,11.42-24.43,18.49
				c-1.07,2.46,1.32,5.92,5.62,11.82c4.73,6.49,11.22,15.38,14.1,27.84c3.96,17.15,0.58,35.63-1.66,47.86
				c-0.63,3.46-1.18,6.45-1.42,8.62c-7.68,71.58-32.37,112.06-94.36,154.67c-44.47,30.57-96.68,36.95-138.64,42.08
				c-11.85,1.45-23.04,2.81-32.91,4.59c-16.54,2.98-29.9,6.64-39.72,10.88c-10.87,4.7-12.47,9.46-14.19,16.86
				c-0.29,1.26-0.69,2.55-1.11,3.89c-1.57,5.05-2.4,8.33,0.14,12.02c32.42,47.16,151.92,108.42,314.36-3.26
				c58.13-39.96,96.64-100.06,105.68-164.88c5.85-42.02-1.78-81.74-19.92-103.65l0,0c-5.22-6.3-11.41-11.79-17.97-17.6
				c-9.57-8.48-19.46-17.25-28.18-29.93c-11.07-16.1-11.07-26.61-11.07-32.88c0-3.16-0.08-4.16-0.61-4.64
				C385.75,46.59,382.69,45.49,379.04,45.49z"/>
		</g>
		<g>
			<path fill="#464646" d="M96.12,398.59c-24.4,0-52.78-1.17-57.13-6.44c-1.06-1.28-1.46-2.92-1.09-4.5
				c2.09-8.99,5-16.94,19.49-23.21c10.47-4.51,24.5-8.37,41.73-11.48c10.13-1.83,21.45-3.21,33.43-4.67
				c40.96-5,91.94-11.23,134.55-40.53c59.42-40.85,83.09-79.61,90.43-148.09c0.27-2.51,0.85-5.65,1.51-9.3
				c2.1-11.49,5.28-28.85,1.75-44.14c-2.46-10.64-8.06-18.32-12.57-24.5c-5.06-6.94-9.84-13.49-6.62-20.89
				c2.27-5.21,6.75-10.55,12.61-15.03c1.75-1.34,4-1.57,6.17-0.62c9.9,4.31,27.94,45.64,32.56,93.88
				c4.47,46.58-0.9,133.57-87.07,192.8c-82.48,56.7-150.27,65.08-175.59,66.06C124.93,398.14,111.29,398.59,96.12,398.59z
				 M47.67,386.44c7.88,1.83,33.8,4.17,82.28,2.32c24.52-0.94,90.23-9.1,170.74-64.45l0,0c72.18-49.62,85.6-118.9,84.14-168.29
				c-1.53-51.87-19.64-93.47-26.95-101.38c-3.65,3.14-6.46,6.65-7.86,9.85c-1.07,2.46,1.32,5.91,5.62,11.81
				c4.73,6.49,11.22,15.38,14.1,27.85c3.96,17.14,0.58,35.63-1.66,47.86c-0.63,3.46-1.18,6.45-1.42,8.62
				c-7.68,71.58-32.37,112.06-94.36,154.67c-44.47,30.57-96.68,36.95-138.64,42.08c-11.85,1.45-23.04,2.81-32.91,4.59
				c-16.54,2.98-29.9,6.64-39.72,10.88C51.87,376.83,49.29,380.84,47.67,386.44z"/>
		</g>
		<g>
			<path fill="#F9E5A8" d="M350.13,61.3c-0.85,1.99-0.64,3.96,0.24,6.07c9.18,3.42,21.05,1.85,31.12-5.08
				c3.68-2.53,6.77-5.54,9.23-8.81c-0.02-3.01-0.07-5.12-1.84-6.76C377.19,35.94,355.2,49.42,350.13,61.3z"/>
		</g>
		<g>
			<path fill="#464646" d="M360.38,73.69c-4.04,0-7.97-0.66-11.61-2.02c-1.19-0.44-2.14-1.36-2.63-2.54
				c-1.42-3.42-1.5-6.66-0.23-9.63l0,0c3.94-9.24,15.64-18.32,26.64-20.68c7.71-1.65,14.44-0.09,19.45,4.53
				c3.27,3.02,3.29,6.78,3.32,10.1c0.01,1-0.32,1.98-0.92,2.79c-2.84,3.78-6.3,7.1-10.3,9.84
				C376.83,71.07,368.41,73.69,360.38,73.69z M354.18,63.77c7.72,1.98,16.97,0.07,24.71-5.25c2.74-1.88,5.16-4.09,7.21-6.58
				c-0.04-0.97-0.12-1.64-0.34-1.84c-2.76-2.54-6.56-3.32-11.3-2.3c-8.95,1.92-17.63,9.47-20.12,15.31c0,0,0,0,0,0.01
				C354.29,63.25,354.2,63.45,354.18,63.77z M350.13,61.3h0.03H350.13z"/>
		</g>
		<g>
			<path fill="#464646" d="M43.09,406.81c-0.49,0-0.99-0.07-1.52-0.2c-7.09-1.91-4.74-13.8-3.4-18.83l0,0
				c2.3-8.64,5.42-13.55,9.27-14.59c2.04-0.56,4.15,0.01,5.65,1.5c2.82,2.81,3.08,8.62,0.78,17.26
				C52.62,396.61,49.21,406.81,43.09,406.81z M46.02,399.4h0.03H46.02z M42.6,388.96h0.03H42.6z"/>
		</g>
	</g>
</g>
</svg>
