<?xml version="1.0" encoding="utf-8"?>
<!-- Generator: Adobe Illustrator 23.0.6, SVG Export Plug-In . SVG Version: 6.00 Build 0)  -->
<svg version="1.2" baseProfile="tiny" id="Layer_1" xmlns="http://www.w3.org/2000/svg" xmlns:xlink="http://www.w3.org/1999/xlink"
	 x="0px" y="0px" viewBox="0 0 512 512" xml:space="preserve">
<g>
	<g>
		<path fill="#CDD989" d="M397.6,249.82c-3.26-0.47-6.43-0.79-9.55-0.99c2.39-3.04,4.71-6.24,6.97-9.61
			c28.08-42,11.83-113.68-1.94-125.69l-0.17-0.12c-12.2-6.07-55.59-0.72-88.52,19.82c-18.83-39.84-66.36-69.4-82.02-68.6l-0.21,0.04
			c-15.87,5.03-53.36,54.66-53.09,101.04c8.63-2.13,17.73-3.3,27.15-3.3c54.22,0,98.17,37.82,98.17,84.47
			c0,2.46-0.14,4.92-0.38,7.38c0,0,0,0,0,0c51.36,2.92,92.04,42.23,92.04,90.31c0,6.84-0.85,13.73-2.41,20.51
			c39.3,3.81,83.51-31.88,87.37-45.85l0.02-0.17C471.29,304.25,437.53,255.61,397.6,249.82z"/>
	</g>
	<g>
		<path fill="#8AC1BC" d="M287.87,254.07c-37.78,0-70.55,19.68-86.96,48.52c12.79,23.97,12.19,56.57-1.84,82.77
			c15.71,34.08,49.56,61.46,88.81,61.46c54.22,0,98.17-52.26,98.17-102.25C386.04,294.59,342.09,254.07,287.87,254.07z"/>
	</g>
	<g>
		<path fill="#8AC1BC" d="M197.55,296.93c-22.89-34.37-73.83-40.67-113.78-14.07c-39.95,26.6-53.78,76.03-30.89,110.4
			c22.89,34.37,79.21,48.75,119.16,22.15C211.99,388.81,220.45,331.3,197.55,296.93z"/>
	</g>
	<g>
		<g>
			<path fill="#8AC1BC" d="M200.91,302.59c16.42-28.84,49.19-48.52,86.96-48.52c2.06,0,4.1,0.08,6.13,0.19
				c0.24-2.46,0.38-4.93,0.38-7.38c0-46.65-43.95-84.47-98.17-84.47c-54.22,0-98.17,37.82-98.17,84.47c0,8.77,1.55,17.61,4.43,26.19
				c35.98-14.26,75.65-5.32,95.08,23.86c1.4,2.11,2.65,4.34,3.82,6.61C201.21,303.22,201.07,302.9,200.91,302.59z"/>
		</g>
	</g>
	<g>
		<g>
			<g>
				<path fill="#464646" d="M389.58,369.34c-2.12,0-4.23-0.1-6.33-0.3c-1.14-0.11-2.17-0.71-2.84-1.63c-0.67-0.93-0.9-2.1-0.65-3.22
					c1.53-6.67,2.31-13.27,2.31-19.62c0-45.6-38.78-83.52-88.29-86.34c-1.08-0.06-2.09-0.56-2.8-1.39c-0.7-0.82-1.04-1.9-0.94-2.98
					c0.24-2.43,0.36-4.78,0.36-6.99c0-44.39-42.26-80.5-94.19-80.5c-8.84,0-17.65,1.07-26.2,3.18c-1.18,0.3-2.43,0.03-3.4-0.72
					c-0.96-0.75-1.53-1.9-1.53-3.11c-0.26-46.73,37.31-98.98,55.87-104.85c0.15-0.05,0.31-0.09,0.46-0.12
					c0.18-0.03,0.56-0.09,0.74-0.1c0.24-0.01,0.49-0.02,0.75-0.02c17.11,0,62.59,27.88,83.12,66.96
					c33.59-19.42,75.63-24.24,88.65-17.75c0.16,0.08,0.31,0.17,0.46,0.27c0.13,0.09,0.43,0.31,0.56,0.41
					c15.95,13.91,31.13,88.28,2.63,130.9c-0.92,1.38-1.87,2.75-2.84,4.11c0.9,0.11,1.8,0.23,2.68,0.36h0
					c40.9,5.93,77.15,55.91,76.83,73.26c0,0.16-0.01,0.31-0.03,0.47c-0.02,0.18-0.08,0.52-0.13,0.69
					C470.8,334.89,429.3,369.34,389.58,369.34z M388.45,361.38c35.76,0.73,74.67-31.11,78.59-42.8
					c-0.42-13.6-32.15-59.33-70.02-64.82c-3.01-0.44-6.12-0.76-9.24-0.96c-1.47-0.1-2.77-1-3.37-2.35c-0.6-1.35-0.41-2.92,0.5-4.08
					c2.35-2.99,4.64-6.15,6.79-9.37c26.95-40.31,11.3-108.65-0.95-120.21c-10.98-4.89-52.28-0.15-84.27,19.8
					c-0.96,0.6-2.14,0.76-3.23,0.44c-1.09-0.32-1.99-1.09-2.47-2.12c-18.2-38.49-63.85-66.33-77.74-66.33c-0.03,0-0.06,0-0.08,0
					c-14.03,5.05-47.58,48.91-49.82,92.13c7.58-1.52,15.31-2.29,23.06-2.29c56.33,0,102.15,39.68,102.15,88.45
					c0,1.22-0.03,2.45-0.09,3.72c51.77,4.84,91.76,45.42,91.76,93.98C390.02,350.05,389.49,355.68,388.45,361.38z"/>
			</g>
			<g>
				<g>
					<g>
						<path fill="#464646" d="M219.27,230.49c-1.95,0-4.09-0.48-6.31-1.44l-6.01-2.6c-4.77-2.07-13.55-2.56-18.8-1.05l-6.57,1.88
							c-5.17,1.49-9.37,0.84-11.81-1.82c-1.93-2.09-2.35-5.09-1.16-8.21l1.78-4.69c0.95-2.49-0.41-7.17-3.66-9.72l-4.67-3.66
							c-4.4-3.45-4.15-6.78-3.61-8.46c0.74-2.3,3.09-5.11,10.07-5.4l7.11-0.29c6.16-0.25,13.18-3.5,15.62-6.25l3.68-4.15
							c2.58-2.91,5.98-4.38,9.36-4.05c3.19,0.32,6.03,2.26,7.8,5.31l2.61,4.51c1.66,2.86,7.78,6.73,13.5,7.64l6.94,1.1
							c6.67,1.05,8.57,4.05,8.98,6.38c0.32,1.78,0.06,5.21-5.2,8.15l-5.5,3.08c-4.04,2.26-6.68,6.9-6.35,9.54l0.61,4.83
							c0.4,3.18-0.67,5.99-2.96,7.7C223.25,229.93,221.38,230.49,219.27,230.49z M195.56,216.56c5.23,0,10.64,0.9,14.55,2.59
							l6.01,2.6c2.04,0.89,3.27,0.84,3.71,0.73c0-0.09,0-0.21-0.02-0.38l-0.61-4.83c-0.78-6.12,3.77-13.8,10.35-17.48l4.87-2.73
							c-0.16-0.03-0.33-0.06-0.5-0.09c0,0,0,0,0,0l-6.94-1.1c-7.7-1.21-16.11-6.27-19.14-11.51l-2.61-4.51
							c-0.34-0.58-0.91-1.29-1.71-1.37c-0.8-0.07-1.76,0.45-2.61,1.41l-3.68,4.15c-4.16,4.69-13.49,8.61-21.25,8.93l-7.11,0.29
							c-0.49,0.02-0.93,0.06-1.31,0.11l4.09,3.2c5.77,4.52,8.49,12.79,6.19,18.81l-1.78,4.68c0.62,0.06,1.73,0.02,3.34-0.45
							l6.56-1.89C188.75,216.95,192.12,216.56,195.56,216.56z M236.78,197.86h0.03H236.78z M166.02,191.98L166.02,191.98
							L166.02,191.98z"/>
					</g>
					<g>
						<path fill="#464646" d="M199.68,210.52c-8.91,0-15.37-4.07-15.37-9.67c0-5.61,6.47-9.68,15.37-9.68
							c8.91,0,15.37,4.07,15.37,9.68C215.05,206.45,208.58,210.52,199.68,210.52z M192.59,200.85c0.98,0.71,3.45,1.72,7.08,1.72
							c3.63,0,6.1-1.01,7.08-1.72c-0.98-0.71-3.45-1.72-7.08-1.72C196.05,199.13,193.57,200.14,192.59,200.85z M207.18,201.25h0.03
							H207.18z"/>
					</g>
					<g>
						<g>
							<path fill="#464646" d="M201.37,307.51c-1.44,0-2.83-0.78-3.54-2.15l0-0.01c-1.28-2.48-2.42-4.46-3.59-6.22
								c-18.04-27.09-55.18-36.3-90.31-22.37c-1.01,0.4-2.15,0.37-3.14-0.09c-0.99-0.46-1.75-1.3-2.09-2.34
								c-3.08-9.17-4.64-18.41-4.64-27.45c0-48.77,45.82-88.45,102.15-88.45c56.33,0,102.15,39.68,102.15,88.45
								c0,2.49-0.13,5.03-0.39,7.76c-0.2,2.12-2.03,3.71-4.18,3.59c-1.96-0.11-3.93-0.19-5.91-0.19c-34.52,0-65.97,17.16-82.57,44.9
								c0.25,1.64-0.55,3.33-2.11,4.13C202.61,307.37,201.99,307.51,201.37,307.51z M136.77,262.37c26.23,0,50.16,11.44,64.09,32.36
								c0.04,0.06,0.08,0.12,0.12,0.18c18.57-27.8,51.24-44.81,86.89-44.81c0.8,0,1.61,0.01,2.45,0.03
								c0.05-1.11,0.08-2.18,0.08-3.25c0-44.39-42.26-80.5-94.19-80.5c-51.94,0-94.19,36.11-94.19,80.5c0,6.9,1.01,13.95,3.01,20.99
								C115.64,264.16,126.39,262.37,136.77,262.37z"/>
						</g>
					</g>
				</g>
				<g>
					<g>
						<g>
							<path fill="#464646" d="M307.94,365.8c-2.11,0-4.42-0.67-6.73-2.01l-6.01-3.47c-4.6-2.65-13.04-3.29-18.07-1.36l-6.56,2.51
								c-4.57,1.75-8.71,1.36-11.36-1.07c-2.49-2.28-3.23-5.97-2.04-10.11l1.79-6.24c1.29-4.52-0.56-11.59-3.97-15.15l-4.67-4.87
								c-4.29-4.48-3.7-8.26-2.97-10.12c0.76-1.93,3.05-5.23,9.8-5.61l7.11-0.39c5.41-0.3,12.58-4.19,15.34-8.33l3.68-5.53
								c2.5-3.75,5.96-5.72,9.46-5.41c3.48,0.31,6.48,2.8,8.24,6.84l2.61,6c1.94,4.46,8.24,9.33,13.49,10.44l6.94,1.46h0
								c6.55,1.38,8.27,4.96,8.71,6.97c0.43,1.96,0.39,5.82-4.69,9.61l-5.5,4.1c-4.05,3.02-7.21,9.76-6.77,14.42l0.62,6.42
								c0.41,4.27-1,7.77-3.86,9.6C311.18,365.37,309.62,365.8,307.94,365.8z M284.22,349.88c5.38,0,10.94,1.22,14.96,3.55
								l6.01,3.47c1.85,1.07,2.88,0.99,3.04,0.91c0.06-0.07,0.37-0.71,0.23-2.15l-0.61-6.42c-0.7-7.41,3.66-16.88,9.94-21.56
								l5.5-4.1c0.92-0.68,1.34-1.21,1.53-1.51c-0.32-0.23-1.03-0.61-2.43-0.91l-6.94-1.46c-7.78-1.63-16.19-8.24-19.15-15.05
								l-2.61-6c-0.66-1.53-1.39-2.07-1.65-2.09c-0.29,0.02-1.15,0.41-2.14,1.89l-3.68,5.53c-4.15,6.22-13.6,11.44-21.53,11.87
								l-7.11,0.39c-1.49,0.08-2.35,0.39-2.72,0.6c0.12,0.3,0.42,0.86,1.19,1.68l4.67,4.87c5.36,5.59,7.94,15.63,5.87,22.84
								l-1.79,6.24c-0.37,1.3-0.25,1.98-0.17,2.12c0.08,0.01,1.1,0.21,3.09-0.55l6.56-2.51
								C277.18,350.42,280.66,349.88,284.22,349.88z"/>
						</g>
						<g>
							<path fill="#464646" d="M288.34,339.21c-8.62,0-15.37-5.08-15.37-11.56c0-6.48,6.75-11.56,15.37-11.56
								c8.62,0,15.37,5.08,15.37,11.56C303.71,334.13,296.96,339.21,288.34,339.21z M288.34,324.04c-4.46,0-7.42,2.17-7.42,3.61
								c0,1.44,2.96,3.61,7.42,3.61c4.46,0,7.42-2.17,7.42-3.61C295.75,326.21,292.79,324.04,288.34,324.04z"/>
						</g>
					</g>
					<g>
						<path fill="#464646" d="M287.87,450.8c-38.28,0-74.56-25.03-92.42-63.78c-0.52-1.13-0.48-2.44,0.11-3.54
							c13.39-25,14.12-56.02,1.84-79.02c-0.64-1.2-0.62-2.65,0.05-3.84c17.74-31.17,52.39-50.53,90.42-50.53
							c56.33,0,102.15,42.38,102.15,94.48C390.02,394.71,346.33,450.8,287.87,450.8z M203.5,385.44
							c16.62,34.41,50.3,57.4,84.37,57.4c53.91,0,94.19-51.88,94.19-98.28c0-47.71-42.26-86.53-94.19-86.53
							c-34.42,0-65.8,17.06-82.43,44.67C217.58,327.2,216.84,359.2,203.5,385.44z"/>
					</g>
				</g>
				<g>
					<g>
						<path fill="#464646" d="M125.4,433.2c-6.63,0-13.37-0.7-20.13-2.1c-23.57-4.91-43.87-17.9-55.68-35.63
							c-11.72-17.6-14.79-39.4-8.64-61.39c6.09-21.77,20.52-41.13,40.63-54.53c20.11-13.39,43.54-19.24,65.98-16.47
							c22.66,2.8,41.59,14.04,53.32,31.64c23.14,34.75,16.68,95.16-26.61,124C159.91,428.27,143.05,433.2,125.4,433.2z
							 M136.55,270.36c-17.4,0-35.04,5.47-50.57,15.81c-18.53,12.34-31.81,30.11-37.38,50.05c-5.52,19.72-2.82,39.2,7.6,54.84
							c10.66,16.01,29.13,27.77,50.68,32.25c22.66,4.72,45.02,0.74,62.96-11.21c39.5-26.31,45.46-81.34,24.4-112.97l0,0
							c-10.42-15.64-27.35-25.65-47.67-28.16C143.25,270.56,139.9,270.36,136.55,270.36z"/>
					</g>
					<g>
						<g>
							<path fill="#464646" d="M93.01,360.94c-0.44,0-0.87-0.04-1.3-0.12c-2.95-0.55-5.22-2.87-6.24-6.39L84,349.38
								c-0.94-3.26-5.2-6.83-8.94-7.47l-5.6-0.96c-5.65-0.98-7.04-4.36-7.37-5.76c-0.45-1.87-0.42-5.59,4.75-9.42l5.07-3.75
								c3.8-2.81,7.3-8.79,7.48-12.78l0.25-5.5c0.18-3.94,1.92-7.09,4.78-8.63c2.79-1.51,6.26-1.26,9.51,0.67l4.59,2.73
								c3.26,1.94,9.86,2.07,14.12,0.27l5.76-2.43c0,0,0,0,0,0c5.83-2.45,8.96-0.58,10.31,0.76c1.29,1.28,3.14,4.23,0.95,9.56
								l-2.23,5.44c-1.52,3.71-0.93,9.47,1.23,12.08l3.31,3.99c2.3,2.78,2.97,5.97,1.83,8.76c-1.27,3.11-4.55,5.17-9.01,5.64
								l-5.98,0.63c-4.52,0.47-10.97,4.16-13.8,7.89l-3.71,4.9C98.87,359.19,95.91,360.94,93.01,360.94z M70.51,333.05
								c0.09,0.02,0.19,0.04,0.29,0.05l5.61,0.97c6.76,1.17,13.45,6.93,15.23,13.1l1.46,5.05c0.07,0.25,0.15,0.45,0.21,0.59
								c0.37-0.24,0.96-0.72,1.65-1.63l3.72-4.9c4.15-5.47,12.63-10.29,19.31-11l5.98-0.63c1.33-0.14,2.06-0.48,2.37-0.69
								c-0.07-0.16-0.22-0.41-0.48-0.73l-3.31-3.99c-4.03-4.86-5.11-13.72-2.47-20.17l2.23-5.44c0.05-0.11,0.09-0.21,0.12-0.31
								c-0.27,0.08-0.58,0.19-0.94,0.34l-5.76,2.43c-6.57,2.77-15.92,2.44-21.28-0.76l-4.59-2.73c-0.93-0.55-1.53-0.57-1.66-0.51
								c-0.17,0.09-0.55,0.71-0.6,1.99l-0.25,5.5c-0.29,6.32-4.98,14.59-10.69,18.81l-5.07,3.75
								C71.12,332.49,70.77,332.79,70.51,333.05z"/>
						</g>
						<g>
							<path fill="#464646" d="M94.92,335.57c-3.36,0-6.17-1.34-7.76-3.73c-3.18-4.78-0.55-11.73,6.13-16.18
								c2.84-1.89,6.02-3,8.96-3.13c3.63-0.15,6.65,1.19,8.33,3.72l0,0c1.68,2.52,1.76,5.85,0.22,9.12
								c-1.25,2.66-3.5,5.16-6.34,7.05c-2.83,1.89-6.01,3-8.95,3.13C95.3,335.56,95.11,335.57,94.92,335.57z M102.86,320.46
								c-1.16,0-3.06,0.41-5.17,1.82c-3.15,2.1-4.07,4.6-3.89,5.19c0.43,0.32,3.09,0.43,6.24-1.67c3.07-2.05,4.02-4.47,3.9-5.14
								C103.76,320.55,103.38,320.46,102.86,320.46z M103.93,320.61L103.93,320.61L103.93,320.61L103.93,320.61z"/>
						</g>
					</g>
				</g>
			</g>
		</g>
	</g>
</g>
</svg>
