<?xml version="1.0" encoding="utf-8"?>
<!-- Generator: Adobe Illustrator 23.0.6, SVG Export Plug-In . SVG Version: 6.00 Build 0)  -->
<svg version="1.2" baseProfile="tiny" id="Layer_1" xmlns="http://www.w3.org/2000/svg" xmlns:xlink="http://www.w3.org/1999/xlink"
	 x="0px" y="0px" viewBox="0 0 512 512" xml:space="preserve">
<g>
	<g>
		<g>
			<path fill="#8AC1BC" d="M288.37,167.95l-65.56,189.41c0,18.6,15.22,33.83,33.83,33.83h91.72h91.72
				c18.6,0,33.83-15.22,33.83-33.83l-65.56-189.41H288.37z"/>
		</g>
		<g>
			<polygon fill="#8AC1BC" points="271.86,120.24 288.37,167.95 408.34,167.95 424.86,120.24 			"/>
		</g>
		<g>
			<path fill="#8AC1BC" d="M190.85,187.07l83.9,20.25l6.21-17.95l-85.67-20.68c0.75,3.11,0.81,6.42,0.01,9.73
				C194.5,181.73,192.93,184.65,190.85,187.07z"/>
		</g>
		<g>
			<path fill="#464646" d="M440.07,394.29H256.64c-20.36,0-36.93-16.57-36.93-36.93c0-0.35,0.06-0.69,0.17-1.01l65.56-189.41
				c0.43-1.25,1.61-2.09,2.93-2.09h119.97c1.32,0,2.5,0.84,2.93,2.09l65.56,189.41c0.11,0.33,0.17,0.67,0.17,1.01
				C477,377.73,460.43,394.29,440.07,394.29z M225.92,357.87c0.27,16.71,13.95,30.22,30.72,30.22h183.43
				c16.77,0,30.45-13.51,30.72-30.22l-64.66-186.82H290.58L225.92,357.87z"/>
		</g>
		<g>
			<path fill="#464646" d="M408.34,171.05H288.37c-1.32,0-2.5-0.84-2.93-2.09l-16.51-47.71c-0.33-0.95-0.18-2,0.41-2.81
				c0.58-0.82,1.52-1.3,2.52-1.3h153c1,0,1.94,0.49,2.52,1.3c0.58,0.82,0.73,1.86,0.41,2.81l-16.51,47.71
				C410.84,170.21,409.66,171.05,408.34,171.05z M290.58,164.85h115.55l14.37-41.51H276.21L290.58,164.85z"/>
		</g>
		<g>
			<path fill="#E7CDAC" d="M179.88,153.19L63.1,125c-11.18-2.7-22.54,4.24-25.23,15.42l0,0c-2.7,11.18,4.24,22.54,15.42,25.23
				l116.78,28.19c11.18,2.7,22.54-4.24,25.23-15.42l0,0C198,167.24,191.06,155.88,179.88,153.19z"/>
		</g>
		<g>
			<path fill="#464646" d="M174.97,197.53c-1.88,0-3.77-0.22-5.64-0.67L52.56,168.67c-12.87-3.11-20.81-16.1-17.71-28.98
				c3.11-12.87,16.12-20.81,28.98-17.71l116.78,28.19l0,0c12.87,3.11,20.81,16.11,17.71,28.98c-1.5,6.21-5.35,11.48-10.83,14.83
				C183.64,196.33,179.34,197.53,174.97,197.53z M58.19,127.51c-8.04,0-15.35,5.49-17.32,13.63c-2.3,9.55,3.59,19.19,13.14,21.49
				l116.78,28.19c4.61,1.11,9.38,0.35,13.45-2.14c4.07-2.49,6.93-6.4,8.04-11c2.3-9.55-3.59-19.19-13.14-21.49L62.37,128.01
				C60.97,127.68,59.57,127.51,58.19,127.51z"/>
		</g>
		<g>
			<path fill="#464646" d="M274.75,210.42c-0.24,0-0.49-0.03-0.73-0.09l-83.9-20.25c-1.05-0.25-1.89-1.03-2.22-2.06
				c-0.33-1.03-0.1-2.15,0.6-2.97c1.86-2.16,3.13-4.64,3.79-7.36c0.66-2.72,0.65-5.51-0.01-8.28c-0.25-1.05,0.06-2.15,0.82-2.92
				c0.76-0.76,1.87-1.08,2.92-0.82l85.67,20.68c0.85,0.2,1.57,0.76,1.99,1.53c0.42,0.77,0.49,1.68,0.21,2.5l-6.21,17.95
				C277.23,209.61,276.04,210.42,274.75,210.42z M195.98,185.12l76.76,18.53l4.18-12.07l-77.95-18.82c0.08,2.14-0.14,4.27-0.65,6.38
				C197.8,181.26,197.02,183.25,195.98,185.12z"/>
		</g>
	</g>
</g>
</svg>
