<?xml version="1.0" encoding="utf-8"?>
<!-- Generator: Adobe Illustrator 23.0.6, SVG Export Plug-In . SVG Version: 6.00 Build 0)  -->
<svg version="1.2" baseProfile="tiny" id="Layer_1" xmlns="http://www.w3.org/2000/svg" xmlns:xlink="http://www.w3.org/1999/xlink"
	 x="0px" y="0px" viewBox="0 0 512 512" xml:space="preserve">
<g>
	<g>
		<g>
			<path fill="#E1AE65" d="M427.71,278.14c1.28-7.6,2.14-15.33,2.53-23.2H36.91C40.85,335,92.63,402.45,164.24,429.4
				c-0.25,0.88-0.4,1.8-0.4,2.76c0,5.9,4.77,10.67,10.66,10.67h118.15c6.81,0,12.16-6.42,10.25-13.43
				c19.19-7.22,36.95-17.37,52.74-29.86c20.35-2.04,54.81-16.53,73.78-24.34c24.29-9.95,49.4-20.24,49.4-47.22
				C478.82,302.39,456.48,281.26,427.71,278.14z M417.1,362.03c-15.18,6.31-27.09,10.79-36.49,13.96
				c20.42-22.93,35.57-50.65,43.53-81.27c21.17,1.54,37.82,15.86,37.82,33.26C461.97,344.27,444.2,350.87,417.1,362.03z"/>
		</g>
		<g>
			<path fill="#464646" d="M292.65,446.74H174.5c-8.03,0-14.57-6.54-14.57-14.58c0-0.08,0-0.16,0-0.23
				C86.58,403.02,36.89,333.96,33,255.14c-0.05-1.07,0.33-2.11,1.07-2.89c0.74-0.78,1.76-1.21,2.83-1.21h393.33
				c1.07,0,2.1,0.44,2.83,1.21c0.74,0.78,1.13,1.82,1.07,2.89c-0.32,6.52-0.98,13.12-1.95,19.68c29.09,4.86,50.54,27.11,50.54,53.16
				c0,29.61-27.54,40.89-51.83,50.84l-2.46,1.01c-19.21,7.92-51.12,21.08-71.27,23.48c-15.29,11.96-32.09,21.58-49.98,28.64
				c0.08,3.25-0.94,6.43-2.96,9.07C301.45,444.65,297.23,446.74,292.65,446.74z M41.06,258.86
				c5.29,75.03,53.81,140.25,124.56,166.89c1.9,0.71,2.93,2.76,2.39,4.71c-0.17,0.61-0.25,1.17-0.25,1.71
				c0,3.72,3.03,6.76,6.75,6.76h118.15c2.12,0,4.08-0.97,5.38-2.66c1.28-1.67,1.67-3.74,1.1-5.83c-0.53-1.95,0.51-3.98,2.4-4.68
				c18.58-6.99,35.96-16.84,51.69-29.27c0.59-0.46,1.29-0.75,2.04-0.82c18.92-1.9,51.03-15.14,70.21-23.05l2.47-1.02
				c24.17-9.9,46.98-19.25,46.98-43.61c0-23.25-20.48-43-47.63-45.94c-1.07-0.12-2.05-0.67-2.7-1.53c-0.65-0.86-0.92-1.95-0.74-3.01
				c1.04-6.19,1.79-12.44,2.23-18.64H41.06z M380.62,379.89c-1.29,0-2.52-0.64-3.26-1.75c-0.98-1.48-0.84-3.43,0.34-4.76
				c20.29-22.77,35.04-50.32,42.66-79.65c0.47-1.83,2.2-3.04,4.07-2.92c23.63,1.72,41.45,17.7,41.45,37.16
				c0,18.26-17.52,25.45-44.05,36.34l-3.23,1.33c-14.04,5.84-26.4,10.56-36.74,14.05C381.45,379.83,381.03,379.89,380.62,379.89z
				 M427.05,298.96c-6.88,24.72-18.62,48.12-34.34,68.55c6.99-2.62,14.64-5.66,22.89-9.09c0,0,0.01,0,0.01,0l3.25-1.33
				c26.47-10.87,39.2-16.64,39.2-29.11C458.06,313.75,444.68,301.47,427.05,298.96z"/>
		</g>
		<g>
			<path fill="#8AC1BC" d="M217.32,57.85c25.99,7.22,51.26,40.03,50.5,67.06c-0.68,23-26.57,35.65-38.32,60.1
				c-10.05,20.89-6.94,46.78-2.54,52.24c-3.4-4.22-37.19-14.1-31.94-51.92c3.33-23.98,20.94-36.95,31.06-56.99
				c5.99-11.85,3.82-24.83,0.18-37.09C225.52,88.77,217.29,57.85,217.32,57.85z"/>
		</g>
		<g>
			<path fill="#464646" d="M226.95,241.16c-1.14,0-2.27-0.5-3.05-1.46c-0.36-0.33-2.19-1.39-3.67-2.24
				c-10.09-5.82-33.71-19.44-29.09-52.68c2.26-16.28,10.71-27.79,18.88-38.92c4.45-6.06,9.04-12.33,12.56-19.29
				c5.6-11.06,3.1-23.5-0.08-34.22c-0.46-1.56-3.5-12.91-4.78-17.72c-4.69-17.58-4.69-17.58-3.54-19.13
				c0.97-1.29,2.63-1.86,4.18-1.43c28.24,7.84,54.17,42.31,53.36,70.94c-0.44,14.84-9.97,25.37-20.07,36.53
				c-6.87,7.59-13.98,15.44-18.64,25.15c-9.47,19.69-6.26,44.06-3.02,48.09c0,0,0,0,0,0.01c1.35,1.68,1.09,4.14-0.59,5.5
				C228.68,240.87,227.81,241.16,226.95,241.16z M223.01,64.09c2.47,9.29,6.53,24.49,6.99,26.04c3.62,12.19,6.4,26.46-0.44,39.97
				c-3.81,7.54-8.6,14.07-13.24,20.39c-7.95,10.82-15.45,21.05-17.44,35.37c-3.39,24.38,10.53,35.83,20.91,42.26
				c-2.01-11.71-1.27-29.35,6.17-44.81c5.15-10.72,12.64-19,19.89-27.01c9.5-10.49,17.7-19.56,18.05-31.51
				C264.55,102.07,245.13,74.15,223.01,64.09z"/>
		</g>
	</g>
</g>
</svg>
