<?xml version="1.0" encoding="utf-8"?>
<!-- Generator: Adobe Illustrator 23.0.6, SVG Export Plug-In . SVG Version: 6.00 Build 0)  -->
<svg version="1.2" baseProfile="tiny" id="Layer_1" xmlns="http://www.w3.org/2000/svg" xmlns:xlink="http://www.w3.org/1999/xlink"
	 x="0px" y="0px" viewBox="0 0 512 512" xml:space="preserve">
<g>
	<g>
		<g>
			<g>
				<path fill="#E1AE65" d="M330.11,244.44C310,209.6,283.68,190.41,256,190.41c-27.67,0-54,19.19-74.12,54.03
					c-20.11,34.86-23.58,67.25-9.74,91.21c13.84,23.98,43.63,37.17,83.86,37.17c40.24,0,70.02-13.19,83.85-37.17
					C353.69,311.69,350.24,279.29,330.11,244.44z"/>
			</g>
			<g>
				<path fill="#E1AE65" d="M172.14,335.65c-13.84-23.96-10.37-56.36,9.74-91.21c13.82-23.93,30.57-40.47,48.67-48.49
					c-21.55-11.74-55.16-25.63-67.21-25.63c-15.79,0-33.04,4.94-51.23,14.68C80,202.2,61.88,225.4,61.08,250.36
					c-0.79,24.94,15.81,49.27,46.76,68.47c10.12,6.29,37.31,16.4,66.94,20.97C173.85,338.45,172.96,337.07,172.14,335.65z"/>
			</g>
			<g>
				<path fill="#E1AE65" d="M112.12,185c10.38-5.56,20.44-9.55,30.11-11.95c-12.34-12.63-27.52-27.79-33.87-29.85
					c-9.32-3.03-18.16-4.58-26.23-4.58c-14.26,0-25.69,4.81-33.07,13.92c-9.29,11.48-13.23,29.79-7.42,50.7
					c6.21,22.35,12.84,36.1,19.7,43.84C63.54,223.38,81.42,201.44,112.12,185z"/>
			</g>
			<g>
				<path fill="#E1AE65" d="M399.88,185c-18.19-9.75-35.44-14.68-51.23-14.68c-12.04,0-45.65,13.89-67.2,25.63
					c18.1,8.02,34.85,24.56,48.66,48.49c20.12,34.86,23.58,67.25,9.74,91.21c-0.82,1.42-1.71,2.8-2.64,4.14
					c29.63-4.57,56.82-14.68,66.94-20.97c30.95-19.2,47.55-43.53,46.76-68.47C450.12,225.4,431.99,202.2,399.88,185z"/>
			</g>
			<g>
				<path fill="#E1AE65" d="M462.95,152.54c-7.39-9.11-18.82-13.92-33.07-13.92c-8.08,0-16.91,1.54-26.23,4.58
					c-6.35,2.06-21.53,17.22-33.87,29.85c9.67,2.41,19.73,6.39,30.11,11.95c30.7,16.44,48.58,38.38,50.79,62.08
					c6.86-7.73,13.5-21.49,19.7-43.84C476.18,182.33,472.24,164.02,462.95,152.54z"/>
			</g>
		</g>
	</g>
	<g>
		<g>
			<g>
				<path fill="#464646" d="M256,376.44c-41.59,0-72.49-13.84-86.99-38.98c-14.5-25.12-11.04-58.8,9.74-94.82
					c20.79-36.01,48.22-55.83,77.25-55.83c29.02,0,56.45,19.83,77.24,55.83l0,0c20.79,36.02,24.25,69.69,9.74,94.83
					C328.48,362.59,297.59,376.44,256,376.44z M256,194.02c-26.33,0-51.55,18.55-70.99,52.22c-19.44,33.7-22.9,64.81-9.74,87.6
					c13.16,22.81,41.84,35.37,80.74,35.37c38.9,0,67.57-12.56,80.72-35.37c13.17-22.8,9.71-53.91-9.74-87.6l0,0
					C307.54,212.57,282.34,194.02,256,194.02z"/>
			</g>
			<g>
				<path fill="#464646" d="M174.78,343.41c-0.18,0-0.37-0.01-0.55-0.04c-29.17-4.5-56.96-14.42-68.3-21.47
					c-32.08-19.91-49.3-45.36-48.46-71.65c0.84-26.29,19.64-50.59,52.94-68.43c18.72-10.03,36.52-15.11,52.93-15.11
					c13.75,0,48.87,15.14,68.94,26.07c1.21,0.66,1.94,1.95,1.88,3.32c-0.06,1.37-0.89,2.6-2.15,3.16
					c-17.46,7.73-33.71,23.98-47,46.99c-19.44,33.7-22.9,64.81-9.74,87.6l0,0c0.73,1.26,1.54,2.54,2.48,3.89
					c0.82,1.19,0.86,2.75,0.09,3.97C177.17,342.78,176.01,343.41,174.78,343.41z M163.34,173.93c-15.2,0-31.87,4.8-49.52,14.25
					c-30.93,16.57-48.38,38.69-49.13,62.29c-0.75,23.61,15.25,46.79,45.05,65.28c8.4,5.22,31.16,14.12,57.87,19.14
					c-12.86-24.83-8.95-57.45,11.14-92.27c12.45-21.55,27.51-37.57,43.9-46.76C201.26,184.93,173.35,173.93,163.34,173.93z"/>
			</g>
			<g>
				<path fill="#464646" d="M61.33,250.7c-1.02,0-2-0.43-2.7-1.21c-7.75-8.73-14.45-23.54-20.48-45.27
					c-5.69-20.48-2.66-40.64,8.1-53.94c8.1-9.98,20.5-15.26,35.88-15.26c8.46,0,17.66,1.6,27.35,4.75
					c6.43,2.09,18.78,13.81,35.34,30.76c0.9,0.93,1.24,2.27,0.89,3.51c-0.36,1.25-1.35,2.21-2.6,2.52
					c-9.37,2.33-19.22,6.25-29.28,11.63l0,0c-29.44,15.77-46.8,36.81-48.9,59.23c-0.13,1.43-1.11,2.65-2.47,3.1
					C62.08,250.64,61.7,250.7,61.33,250.7z M82.12,142.23c-13.13,0-23.59,4.35-30.27,12.58c-9.29,11.48-11.81,29.23-6.75,47.46
					c4.32,15.54,9.05,27.53,14.11,35.79c5.4-21.57,23.26-41.29,51.19-56.26l0,0c8.47-4.54,16.84-8.09,24.96-10.6
					c-8.72-8.84-23.04-22.93-28.13-24.58C98.26,143.71,89.81,142.23,82.12,142.23z M112.11,185h0.02H112.11z"/>
			</g>
			<g>
				<path fill="#464646" d="M337.22,343.41c-1.23,0-2.39-0.63-3.06-1.69c-0.76-1.22-0.73-2.78,0.09-3.97
					c0.95-1.37,1.76-2.65,2.48-3.89c13.17-22.81,9.71-53.92-9.74-87.6c-13.28-23.01-29.53-39.26-47-46.99
					c-1.26-0.56-2.09-1.78-2.15-3.16c-0.06-1.37,0.67-2.66,1.88-3.32c20.06-10.93,55.18-26.07,68.93-26.07
					c16.41,0,34.22,5.08,52.93,15.11c33.3,17.84,52.1,42.14,52.94,68.43c0.84,26.3-16.38,51.74-48.47,71.65
					c-11.33,7.05-39.12,16.97-68.29,21.47C337.59,343.39,337.4,343.41,337.22,343.41z M289.35,195.87
					c16.39,9.19,31.45,25.21,43.89,46.76c20.1,34.81,24,67.44,11.14,92.27c26.72-5.03,49.48-13.93,57.87-19.14
					c29.81-18.49,45.81-41.68,45.06-65.29c-0.75-23.6-18.2-45.72-49.13-62.29l0,0c-17.66-9.46-34.32-14.25-49.52-14.25
					C338.64,173.93,310.74,184.93,289.35,195.87z"/>
			</g>
			<g>
				<path fill="#464646" d="M450.67,250.7c-0.38,0-0.76-0.06-1.12-0.18c-1.37-0.45-2.34-1.66-2.47-3.1
					c-2.1-22.43-19.46-43.47-48.9-59.23c-10.05-5.38-19.9-9.3-29.28-11.63c-1.26-0.31-2.25-1.27-2.6-2.52
					c-0.35-1.25-0.01-2.58,0.89-3.51c16.56-16.95,28.91-28.67,35.34-30.76c9.69-3.15,18.89-4.75,27.35-4.75
					c15.38,0,27.79,5.28,35.88,15.26c0,0,0,0,0,0c10.76,13.3,13.78,33.46,8.09,53.94c-6.04,21.74-12.74,36.54-20.48,45.27
					C452.68,250.27,451.69,250.7,450.67,250.7z M376.63,171.21c8.11,2.51,16.48,6.06,24.96,10.6
					c27.94,14.97,45.79,34.69,51.19,56.26c5.07-8.26,9.8-20.25,14.11-35.79c5.07-18.23,2.54-35.98-6.75-47.46
					c-6.68-8.23-17.15-12.58-30.27-12.58c-7.7,0-16.15,1.48-25.11,4.4C399.68,148.28,385.36,162.37,376.63,171.21z"/>
			</g>
		</g>
	</g>
</g>
</svg>
