<?xml version="1.0" encoding="utf-8"?>
<!-- Generator: Adobe Illustrator 23.0.6, SVG Export Plug-In . SVG Version: 6.00 Build 0)  -->
<svg version="1.2" baseProfile="tiny" id="Layer_1" xmlns="http://www.w3.org/2000/svg" xmlns:xlink="http://www.w3.org/1999/xlink"
	 x="0px" y="0px" viewBox="0 0 512 512" xml:space="preserve">
<g>
	<g>
		<path fill="#E1AE65" d="M256,42.1c-117.98,0-213.62,95.63-213.62,213.62c0,117.96,95.64,213.61,213.62,213.61
			s213.62-95.65,213.62-213.61C469.62,137.73,373.98,42.1,256,42.1z M256,341.16c-47.19,0-85.44-38.26-85.44-85.44
			c0-47.19,38.25-85.46,85.44-85.46c47.18,0,85.46,38.27,85.46,85.46C341.46,302.9,303.18,341.16,256,341.16z"/>
	</g>
	<g>
		<g>
			<path fill="#464646" d="M256,473.71c-120.21,0-218-97.79-218-217.99c0-120.21,97.79-218,218-218s218,97.79,218,218
				C474,375.92,376.21,473.71,256,473.71z M256,46.48c-115.37,0-209.23,93.86-209.23,209.23c0,115.37,93.86,209.23,209.23,209.23
				s209.23-93.86,209.23-209.23C465.23,140.35,371.37,46.48,256,46.48z M256,345.54c-49.53,0-89.82-40.3-89.82-89.82
				c0-49.54,40.3-89.84,89.82-89.84c49.54,0,89.84,40.3,89.84,89.84C345.84,305.25,305.54,345.54,256,345.54z M256,174.64
				c-44.69,0-81.06,36.37-81.06,81.08c0,44.69,36.36,81.06,81.06,81.06c44.7,0,81.07-36.36,81.07-81.06
				C337.07,211.01,300.7,174.64,256,174.64z"/>
		</g>
		<g>
			<path fill="#464646" d="M359.68,395.8c-8.28,0-15.7-4.34-23.54-8.93c-8.6-5.03-17.49-10.23-28.3-10.23
				c-10.81,0-19.7,5.2-28.29,10.23c-7.85,4.59-15.26,8.93-23.55,8.93c-8.29,0-15.7-4.34-23.55-8.93
				c-8.59-5.03-17.48-10.23-28.29-10.23c-10.81,0-19.7,5.2-28.29,10.23c-7.85,4.59-15.26,8.93-23.55,8.93
				c-8.29,0-15.7-4.34-23.55-8.93c-8.6-5.03-17.48-10.23-28.29-10.23c-5.5,0-10.93,1.32-17.09,4.16c-2.2,1.01-4.8,0.05-5.81-2.15
				c-1.01-2.2-0.05-4.8,2.15-5.81c7.34-3.38,13.94-4.96,20.75-4.96c13.19,0,23.56,6.07,32.72,11.43c7.09,4.15,13.21,7.73,19.12,7.73
				c5.91,0,12.03-3.58,19.12-7.73c9.16-5.36,19.53-11.43,32.72-11.43c13.19,0,23.56,6.07,32.72,11.43
				c7.09,4.15,13.21,7.73,19.12,7.73s12.03-3.58,19.12-7.73c9.16-5.36,19.53-11.43,32.72-11.43c13.19,0,23.56,6.07,32.72,11.43
				c7.09,4.15,13.21,7.73,19.12,7.73c5.91,0,12.04-3.58,19.12-7.73c9.16-5.36,19.53-11.43,32.72-11.43c6.99,0,13.79,1.67,21.4,5.26
				c2.19,1.03,3.13,3.65,2.09,5.83c-1.03,2.19-3.65,3.13-5.83,2.09c-6.4-3.02-12.01-4.42-17.66-4.42c-10.81,0-19.7,5.2-28.3,10.23
				C375.38,391.47,367.97,395.8,359.68,395.8z"/>
		</g>
		<g>
			<path fill="#464646" d="M123.36,195.9c-8.44,0-15.31-6.87-15.31-15.32c0-8.45,6.87-15.32,15.31-15.32
				c8.45,0,15.32,6.87,15.32,15.32C138.68,189.02,131.81,195.9,123.36,195.9z M123.36,174.02c-3.61,0-6.54,2.94-6.54,6.55
				c0,3.61,2.93,6.55,6.54,6.55c3.62,0,6.56-2.94,6.56-6.55C129.91,176.96,126.97,174.02,123.36,174.02z"/>
		</g>
		<g>
			<path fill="#464646" d="M193.67,117.52c-9.46,0-17.16-7.7-17.16-17.17c0-9.44,7.7-17.12,17.16-17.12
				c9.45,0,17.14,7.68,17.14,17.12C210.8,109.82,203.11,117.52,193.67,117.52z M193.67,91.99c-4.63,0-8.39,3.75-8.39,8.36
				c0,4.63,3.77,8.4,8.39,8.4c4.61,0,8.37-3.77,8.37-8.4C202.04,95.74,198.28,91.99,193.67,91.99z"/>
		</g>
		<g>
			<path fill="#464646" d="M431.07,287.54c-8.12,0-14.73-6.6-14.73-14.71c0-8.11,6.61-14.71,14.73-14.71c8.11,0,14.7,6.6,14.7,14.71
				C445.77,280.94,439.17,287.54,431.07,287.54z M431.07,266.88c-3.29,0-5.96,2.67-5.96,5.95c0,3.28,2.67,5.94,5.96,5.94
				c3.27,0,5.93-2.67,5.93-5.94C437,269.55,434.34,266.88,431.07,266.88z"/>
		</g>
		<g>
			<path fill="#464646" d="M320.41,102.33c-9.47,0-17.17-7.69-17.17-17.14c0-9.46,7.7-17.15,17.17-17.15
				c9.45,0,17.14,7.69,17.14,17.15C337.55,94.64,329.86,102.33,320.41,102.33z M320.41,76.81c-4.63,0-8.4,3.76-8.4,8.38
				c0,4.61,3.77,8.37,8.4,8.37c4.61,0,8.37-3.75,8.37-8.37C328.78,80.57,325.02,76.81,320.41,76.81z"/>
		</g>
		<g>
			<path fill="#464646" d="M369.99,198.31c-9.79,0-17.75-7.97-17.75-17.76c0-9.77,7.96-17.72,17.75-17.72
				c9.79,0,17.75,7.95,17.75,17.72C387.74,190.35,379.78,198.31,369.99,198.31z M369.99,171.6c-4.95,0-8.98,4.02-8.98,8.95
				c0,4.96,4.03,8.99,8.98,8.99c4.95,0,8.98-4.03,8.98-8.99C378.97,175.62,374.94,171.6,369.99,171.6z"/>
		</g>
		<g>
			<path fill="#464646" d="M107.49,308.68c-8.44,0-15.31-6.87-15.31-15.32c0-8.45,6.87-15.32,15.31-15.32
				c8.45,0,15.32,6.87,15.32,15.32C122.81,301.8,115.94,308.68,107.49,308.68z M107.49,286.8c-3.61,0-6.54,2.94-6.54,6.55
				s2.93,6.55,6.54,6.55c3.62,0,6.56-2.94,6.56-6.55S111.11,286.8,107.49,286.8z"/>
		</g>
		<g>
			<path fill="#464646" d="M170.57,363.01c-8.12,0-14.73-6.6-14.73-14.71c0-8.11,6.61-14.71,14.73-14.71c8.11,0,14.7,6.6,14.7,14.71
				C185.27,356.41,178.68,363.01,170.57,363.01z M170.57,342.36c-3.29,0-5.96,2.67-5.96,5.95c0,3.28,2.68,5.94,5.96,5.94
				c3.27,0,5.93-2.67,5.93-5.94C176.51,345.02,173.85,342.36,170.57,342.36z"/>
		</g>
	</g>
</g>
</svg>
