<svg viewBox="0 0 37 36" xmlns="http://www.w3.org/2000/svg">
  <path fill-rule="evenodd" clip-rule="evenodd" d="M20.7262 31.091V19.1491H24.8113L25.4241 14.4938H20.7262V11.522C20.7262 10.1746 21.1061 9.25636 23.0783 9.25636L25.5895 9.25535V5.09144C25.1552 5.03609 23.6645 4.90918 21.9294 4.90918C18.3064 4.90918 15.8259 7.0783 15.8259 11.061V14.4938H11.7285V19.1491H15.8259V31.091H20.7262Z"/>
  <mask id="mask0" mask-type="alpha" maskUnits="userSpaceOnUse" x="11" y="4" width="15" height="28">
    <path fill-rule="evenodd" clip-rule="evenodd" d="M20.7262 31.091V19.1491H24.8113L25.4241 14.4938H20.7262V11.522C20.7262 10.1746 21.1061 9.25636 23.0783 9.25636L25.5895 9.25535V5.09144C25.1552 5.03609 23.6645 4.90918 21.9294 4.90918C18.3064 4.90918 15.8259 7.0783 15.8259 11.061V14.4938H11.7285V19.1491H15.8259V31.091H20.7262Z"/>
  </mask>
  <g mask="url(#mask0)"></g>
</svg>