<svg viewBox="0 0 37 36" xmlns="http://www.w3.org/2000/svg">
  <path fill-rule="evenodd" clip-rule="evenodd" d="M12.2219 3.27271H25.4197C29.9019 3.27271 33.5484 6.91919 33.5482 11.4011V24.5989C33.5482 29.0808 29.9019 32.7272 25.4197 32.7272H12.2219C7.74007 32.7272 4.09375 29.0809 4.09375 24.5989V11.4011C4.09375 6.91919 7.74007 3.27271 12.2219 3.27271ZM25.4199 30.114C28.461 30.114 30.9351 27.64 30.9351 24.5989H30.935V11.4012C30.935 8.36028 28.4608 5.88612 25.4198 5.88612H12.222C9.18115 5.88612 6.70717 8.36028 6.70717 11.4012V24.5989C6.70717 27.64 9.18115 30.1142 12.222 30.114H25.4199ZM11.1066 18.0001C11.1066 13.7463 14.5672 10.2856 18.8209 10.2856C23.0746 10.2856 26.5352 13.7463 26.5352 18.0001C26.5352 22.2538 23.0746 25.7142 18.8209 25.7142C14.5672 25.7142 11.1066 22.2538 11.1066 18.0001ZM13.7629 17.9998C13.7629 20.7888 16.0321 23.0576 18.8209 23.0576C21.6098 23.0576 23.879 20.7888 23.879 17.9998C23.879 15.2107 21.61 12.9417 18.8209 12.9417C16.0319 12.9417 13.7629 15.2107 13.7629 17.9998Z"/>
  <path fill-rule="evenodd" clip-rule="evenodd" d="M12.2219 3.27271H25.4197C29.9019 3.27271 33.5484 6.91919 33.5482 11.4011V24.5989C33.5482 29.0808 29.9019 32.7272 25.4197 32.7272H12.2219C7.74007 32.7272 4.09375 29.0809 4.09375 24.5989V11.4011C4.09375 6.91919 7.74007 3.27271 12.2219 3.27271ZM25.4199 30.114C28.461 30.114 30.9351 27.64 30.9351 24.5989H30.935V11.4012C30.935 8.36028 28.4608 5.88612 25.4198 5.88612H12.222C9.18115 5.88612 6.70717 8.36028 6.70717 11.4012V24.5989C6.70717 27.64 9.18115 30.1142 12.222 30.114H25.4199ZM11.1066 18.0001C11.1066 13.7463 14.5672 10.2856 18.8209 10.2856C23.0746 10.2856 26.5352 13.7463 26.5352 18.0001C26.5352 22.2538 23.0746 25.7142 18.8209 25.7142C14.5672 25.7142 11.1066 22.2538 11.1066 18.0001ZM13.7629 17.9998C13.7629 20.7888 16.0321 23.0576 18.8209 23.0576C21.6098 23.0576 23.879 20.7888 23.879 17.9998C23.879 15.2107 21.61 12.9417 18.8209 12.9417C16.0319 12.9417 13.7629 15.2107 13.7629 17.9998Z"/>
  <ellipse cx="27.2971" cy="10.35" rx="1.80488" ry="1.8"/>
</svg>