<svg width="16" height="16" viewBox="0 0 16 16" xmlns="http://www.w3.org/2000/svg" class="w-6 h-6">
<g>
    <path d="M3.57592 5.36276H0.227539V15.9996H3.57592V5.36276Z"></path>
    <path d="M1.92694 3.86252C2.99117 3.86252 3.85389 2.99787 3.85389 1.93126C3.85389 0.864655 2.99117 0 1.92694 0C0.862722 0 0 0.864655 0 1.93126C0 2.99787 0.862722 3.86252 1.92694 3.86252Z"></path>
    <path d="M12.2091 5.04628C9.61872 5.04628 8.88206 6.8193 8.88206 6.8193V5.3632H5.66016V16H9.00854V10.4283C9.00854 9.66854 9.24013 7.95891 10.9669 7.95891C12.6936 7.95891 12.6936 9.96404 12.6936 9.96404V16H15.9997V9.68953C15.9997 6.69297 14.7981 5.04628 12.2091 5.04628Z"></path>
</g>
<defs>
    <clipPath>
      <rect width="16" height="16"></rect>
    </clipPath>
</defs>
</svg>