<svg viewBox="0 0 36 36" xmlns="http://www.w3.org/2000/svg">
  <path d="M18.6535 4C10.9208 4 7 9.49957 7 14.0286C7 16.8323 8.08911 19.3125 10.3762 20.1752C10.703 20.283 11.0297 20.1752 11.1386 19.7439C11.2475 19.4204 11.3564 18.7733 11.4653 18.4498C11.5743 18.0185 11.5743 17.9107 11.2475 17.5872C10.5941 16.8323 10.1584 15.8618 10.1584 14.46C10.1584 10.3622 13.2079 6.69587 18.2178 6.69587C22.5743 6.69587 24.9703 9.39173 24.9703 12.8424C24.9703 17.4793 22.901 21.3614 19.8515 21.3614C18.1089 21.3614 16.9109 19.9595 17.2376 18.2342C17.6733 16.1853 18.6535 14.0286 18.6535 12.5189C18.6535 11.2249 17.8911 10.1466 16.4752 10.1466C14.7327 10.1466 13.3168 11.9798 13.3168 14.3521C13.3168 15.8618 13.8614 16.9402 13.8614 16.9402C13.8614 16.9402 12.1188 24.3807 11.7921 25.6748C11.1386 28.2628 11.6832 31.4978 11.7921 31.8213C11.7921 32.037 12.1188 32.037 12.2277 31.9292C12.3366 31.7135 14.4059 29.2333 15.1683 26.6453C15.3861 25.8904 16.2574 22.2241 16.2574 22.2241C16.802 23.3024 18.4356 24.2729 20.1782 24.2729C25.4059 24.2729 29 19.5282 29 13.2738C28.8911 8.42122 24.8614 4 18.6535 4Z"/>
</svg>