<?xml version="1.0" encoding="utf-8"?>
<!-- Generator: Adobe Illustrator 23.0.6, SVG Export Plug-In . SVG Version: 6.00 Build 0)  -->
<svg version="1.2" baseProfile="tiny" id="Layer_1" xmlns="http://www.w3.org/2000/svg" xmlns:xlink="http://www.w3.org/1999/xlink"
	 x="0px" y="0px" viewBox="0 0 512 512" xml:space="preserve">
<g>
	<g>
		<g>
			<path fill="#CDD989" d="M466.31,200.33c-8.15-14.42-24.87-23.57-44.96-29.25c2.25-9.53,4.16-19.29,5.7-29.24H235.64H40.39
				c13.2,85.55,53.64,156.54,107.69,193.57v10.84c0,12.84,10.5,23.34,23.34,23.34h124.6c12.84,0,23.34-10.5,23.34-23.34v-10.84
				c9.5-6.51,18.57-14.06,27.15-22.56c57.78-9.3,96.24-29.34,114.68-59.95C476.05,228.26,472.17,210.72,466.31,200.33z
				 M437.52,238.64c-10.37,17.2-31.6,30.48-62.15,39.39c15.93-23.27,29.07-50.44,38.63-80.42c14.55,4.04,24.44,9.59,28.24,16.32
				C445.51,219.71,443.92,228.02,437.52,238.64z"/>
		</g>
		<g>
			<path fill="#464646" d="M296.02,373.05h-124.6c-14.78,0-26.8-12.02-26.8-26.8v-9.03c-54.5-38.15-94.68-110.82-107.65-194.85
				c-0.15-1,0.13-2.01,0.79-2.78c0.66-0.76,1.61-1.21,2.62-1.21h386.65c1.01,0,1.97,0.44,2.62,1.21c0.66,0.77,0.95,1.78,0.79,2.78
				c-1.36,8.84-3.05,17.68-5.01,26.32c21.63,6.63,36.38,16.7,43.87,29.95c6.32,11.18,10.55,29.98-5.17,56.05
				c-18.81,31.2-57.83,51.85-116,61.39c-8.06,7.9-16.57,15-25.34,21.13v9.03C322.82,361.03,310.79,373.05,296.02,373.05z
				 M44.44,145.29c13.44,81.25,52.74,151.05,105.59,187.27c0.94,0.64,1.5,1.71,1.5,2.85v10.84c0,10.97,8.92,19.89,19.89,19.89h124.6
				c10.97,0,19.89-8.92,19.89-19.89v-10.84c0-1.14,0.56-2.21,1.5-2.85c9.24-6.33,18.22-13.79,26.67-22.16
				c0.51-0.51,1.17-0.84,1.88-0.96c56.67-9.12,94.45-28.74,112.27-58.32c13.99-23.21,10.48-39.51,5.07-49.09
				c-6.92-12.24-21.34-21.54-42.89-27.63c-1.78-0.5-2.85-2.32-2.42-4.12c1.94-8.19,3.62-16.58,5.01-24.99H44.44z M375.37,281.48
				c-1.09,0-2.14-0.52-2.8-1.43c-0.86-1.18-0.88-2.78-0.05-3.98c15.93-23.27,28.78-50.02,38.19-79.51c0.56-1.77,2.42-2.78,4.22-2.28
				c15.89,4.41,26.09,10.45,30.33,17.95c3.92,6.94,2.32,16.43-4.77,28.19l0,0c-10.78,17.88-32.36,31.65-64.14,40.92
				C376.02,281.44,375.69,281.48,375.37,281.48z M416.25,201.87c-8.4,25.49-19.35,48.96-32.64,69.92
				c25.02-8.59,42.14-20.32,50.95-34.94l0,0c3.92-6.51,7.92-15.48,4.67-21.23C436.28,210.4,428.18,205.56,416.25,201.87z
				 M437.52,238.64h0.02H437.52z"/>
		</g>
		<g>
			<path fill="#464646" d="M233.27,189.32c-1.87,0-3.41-1.5-3.45-3.38l-0.99-44.03c-0.04-1.91,1.47-3.49,3.38-3.53
				c0.03,0,0.05,0,0.08,0c1.87,0,3.41,1.5,3.45,3.38l0.99,44.03c0.04,1.91-1.47,3.49-3.38,3.53
				C233.32,189.32,233.29,189.32,233.27,189.32z"/>
		</g>
		<g>
			<path fill="#E1AE65" d="M256.33,186.69l24.57,17.18v51.12c0,12.67-10.36,23.03-23.03,23.03h-49.21
				c-12.67,0-23.03-10.36-23.03-23.03v-51.12l24.57-17.18H256.33z"/>
		</g>
		<g>
			<path fill="#464646" d="M257.87,281.48h-49.21c-14.61,0-26.49-11.88-26.49-26.49v-51.12c0-1.13,0.55-2.19,1.48-2.83l24.57-17.18
				c0.58-0.41,1.27-0.62,1.98-0.62h46.13c0.71,0,1.4,0.22,1.98,0.62l24.57,17.18c0.92,0.65,1.48,1.7,1.48,2.83v51.12
				C284.36,269.6,272.48,281.48,257.87,281.48z M189.09,205.67v49.32c0,10.8,8.78,19.58,19.58,19.58h49.21
				c10.8,0,19.58-8.78,19.58-19.58v-49.32l-22.21-15.52h-43.95L189.09,205.67z"/>
		</g>
	</g>
</g>
</svg>
