<svg width="69" height="69" viewBox="0 0 69 69" xmlns="http://www.w3.org/2000/svg">
  <path d="M36.1166 18.1176L39.6938 25.6961C39.9529 26.2511 40.4585 26.6343 41.0462 26.7268L49.0473 27.9425C50.5199 28.1672 51.1077 30.0568 50.0459 31.147L44.2568 37.0473C43.8334 37.4767 43.6374 38.0978 43.7386 38.7123L45.1037 47.044C45.3565 48.5768 43.8144 49.7463 42.4998 49.0261L35.3393 45.0948C34.8147 44.8041 34.189 44.8041 33.6645 45.0948L26.5039 49.0261C25.1831 49.7529 23.6473 48.5834 23.9001 47.044L25.2652 38.7123C25.3663 38.1044 25.1704 37.4833 24.747 37.0473L18.9579 31.147C17.8898 30.0634 18.4775 28.1672 19.9564 27.9425L27.9575 26.7268C28.5453 26.6409 29.0509 26.2511 29.31 25.6961L32.8871 18.1176C33.5444 16.7235 35.453 16.7235 36.1103 18.1176H36.1166Z" stroke-width="3" stroke-linecap="round" stroke-linejoin="round"/>
  <path d="M34.5 9.19881V4.87628" stroke-width="3" stroke-linecap="round" stroke-linejoin="round"/>
  <path d="M34.5 64.1243V59.8018" stroke-width="3" stroke-linecap="round" stroke-linejoin="round"/>
  <path d="M9.19948 34.5003H4.87695" stroke-width="3" stroke-linecap="round" stroke-linejoin="round"/>
  <path d="M64.1243 34.5003H59.8018" stroke-width="3" stroke-linecap="round" stroke-linejoin="round"/>
  <path d="M16.6087 16.6089L13.5537 13.5538" stroke-width="3" stroke-linecap="round" stroke-linejoin="round"/>
  <path d="M55.4466 55.4466L52.3916 52.3916" stroke-width="3" stroke-linecap="round" stroke-linejoin="round"/>
  <path d="M16.6087 52.3916L13.5537 55.4466" stroke-width="3" stroke-linecap="round" stroke-linejoin="round"/>
  <path d="M55.4466 13.5538L52.3916 16.6089" stroke-width="3" stroke-linecap="round" stroke-linejoin="round"/>
  <path d="M23.0034 6.73691L21.0371 2" stroke-width="3" stroke-linecap="round" stroke-linejoin="round"/>
  <path d="M47.9643 67.0004L45.998 62.2635" stroke-width="3" stroke-linecap="round" stroke-linejoin="round"/>
  <path d="M6.73691 45.9971L2 47.9634" stroke-width="3" stroke-linecap="round" stroke-linejoin="round"/>
  <path d="M67.0006 21.0369L62.2637 23.0032" stroke-width="3" stroke-linecap="round" stroke-linejoin="round"/>
  <path d="M6.73691 23.0032L2 21.0369" stroke-width="3" stroke-linecap="round" stroke-linejoin="round"/>
  <path d="M67.0006 47.9634L62.2637 45.9971" stroke-width="3" stroke-linecap="round" stroke-linejoin="round"/>
  <path d="M23.0034 62.2635L21.0371 67.0004" stroke-width="3" stroke-linecap="round" stroke-linejoin="round"/>
  <path d="M47.9643 2L45.998 6.73691" stroke-width="3" stroke-linecap="round" stroke-linejoin="round"/>
</svg>