<svg viewBox="0 0 36 36" xmlns="http://www.w3.org/2000/svg">
  <path fill-rule="evenodd" clip-rule="evenodd" d="M32.7273 9.21891C31.7035 9.67259 30.6049 9.98027 29.4506 10.1176C30.6292 9.41186 31.5314 8.29241 31.959 6.96259C30.8534 7.61618 29.6331 8.09077 28.3328 8.34805C27.2916 7.23727 25.8105 6.54541 24.1678 6.54541C21.0163 6.54541 18.461 9.10073 18.461 12.2505C18.461 12.6973 18.5114 13.1336 18.6087 13.5508C13.8666 13.3126 9.66168 11.0407 6.84736 7.58836C6.35541 8.42973 6.07554 9.41009 6.07554 10.4566C6.07554 12.4365 7.08377 14.1835 8.6135 15.2056C7.67827 15.1744 6.79868 14.9171 6.02863 14.4895V14.5607C6.02863 17.3246 7.99641 19.6314 10.6056 20.1564C10.1275 20.285 9.62345 20.3563 9.10195 20.3563C8.73345 20.3563 8.37709 20.3198 8.02768 20.2502C8.75427 22.5187 10.8611 24.1684 13.3574 24.2136C11.4052 25.7433 8.94377 26.6525 6.27027 26.6525C5.80963 26.6525 5.35591 26.6246 4.90918 26.5742C7.43495 28.1961 10.4335 29.1417 13.6564 29.1417C24.154 29.1417 29.8922 20.4467 29.8922 12.9059L29.873 12.1671C30.9942 11.3675 31.9642 10.3627 32.7273 9.21891Z" />
  <mask id="mask0" mask-type="alpha" maskUnits="userSpaceOnUse" x="4" y="6" width="29" height="24">
    <path fill-rule="evenodd" clip-rule="evenodd" d="M32.7273 9.21891C31.7035 9.67259 30.6049 9.98027 29.4506 10.1176C30.6292 9.41186 31.5314 8.29241 31.959 6.96259C30.8534 7.61618 29.6331 8.09077 28.3328 8.34805C27.2916 7.23727 25.8105 6.54541 24.1678 6.54541C21.0163 6.54541 18.461 9.10073 18.461 12.2505C18.461 12.6973 18.5114 13.1336 18.6087 13.5508C13.8666 13.3126 9.66168 11.0407 6.84736 7.58836C6.35541 8.42973 6.07554 9.41009 6.07554 10.4566C6.07554 12.4365 7.08377 14.1835 8.6135 15.2056C7.67827 15.1744 6.79868 14.9171 6.02863 14.4895V14.5607C6.02863 17.3246 7.99641 19.6314 10.6056 20.1564C10.1275 20.285 9.62345 20.3563 9.10195 20.3563C8.73345 20.3563 8.37709 20.3198 8.02768 20.2502C8.75427 22.5187 10.8611 24.1684 13.3574 24.2136C11.4052 25.7433 8.94377 26.6525 6.27027 26.6525C5.80963 26.6525 5.35591 26.6246 4.90918 26.5742C7.43495 28.1961 10.4335 29.1417 13.6564 29.1417C24.154 29.1417 29.8922 20.4467 29.8922 12.9059L29.873 12.1671C30.9942 11.3675 31.9642 10.3627 32.7273 9.21891Z"/>
  </mask>
  <g mask="url(#mask0)"></g>
</svg>