<?xml version="1.0" encoding="utf-8"?>
<!-- Generator: Adobe Illustrator 23.0.6, SVG Export Plug-In . SVG Version: 6.00 Build 0)  -->
<svg version="1.2" baseProfile="tiny" id="Layer_1" xmlns="http://www.w3.org/2000/svg" xmlns:xlink="http://www.w3.org/1999/xlink"
	 x="0px" y="0px" viewBox="0 0 512 512" xml:space="preserve">
<g>
	<g>
		<path fill="#E7CDAC" d="M411.96,470.74H100.04c-4.71,0-8.56-3.85-8.56-8.56V49.25c0-4.71,3.85-8.56,8.56-8.56h311.92
			c4.71,0,8.56,3.85,8.56,8.56v412.93C420.52,466.89,416.67,470.74,411.96,470.74z"/>
	</g>
	<g>
		<g>
			<g>
				<path fill="#464646" d="M393.77,475.43H118.24c-17.34,0-31.44-14.11-31.44-31.44V67.44C86.79,50.11,100.9,36,118.24,36h275.53
					c17.34,0,31.44,14.11,31.44,31.44v376.54C425.21,461.32,411.1,475.43,393.77,475.43z M118.24,45.38
					c-12.17,0-22.06,9.9-22.06,22.06v376.54c0,12.17,9.9,22.06,22.06,22.06h275.53c12.16,0,22.06-9.9,22.06-22.06V67.44
					c0-12.16-9.9-22.06-22.06-22.06H118.24z"/>
			</g>
			<g>
				<g>
					<path fill="#464646" d="M222.24,314.76h-94.46c-7.64,0-13.86-6.22-13.86-13.86v-90.39c0-7.64,6.22-13.86,13.86-13.86h94.46
						c7.64,0,13.86,6.22,13.86,13.86v90.39C236.1,308.55,229.88,314.76,222.24,314.76z M127.78,206.04c-2.47,0-4.48,2.01-4.48,4.48
						v90.39c0,2.47,2.01,4.48,4.48,4.48h94.46c2.47,0,4.48-2.01,4.48-4.48v-90.39c0-2.47-2.01-4.48-4.48-4.48H127.78z"/>
				</g>
				<g>
					<path fill="#464646" d="M384.22,314.76h-94.46c-7.64,0-13.86-6.22-13.86-13.86v-90.39c0-7.64,6.22-13.86,13.86-13.86h94.46
						c7.64,0,13.86,6.22,13.86,13.86v90.39C398.08,308.55,391.86,314.76,384.22,314.76z M289.76,206.04c-2.47,0-4.48,2.01-4.48,4.48
						v90.39c0,2.47,2.01,4.48,4.48,4.48h94.46c2.47,0,4.48-2.01,4.48-4.48v-90.39c0-2.47-2.01-4.48-4.48-4.48H289.76z"/>
				</g>
			</g>
			<g>
				<g>
					<g>
						<path fill="#464646" d="M222.24,178.34h-94.46c-7.64,0-13.86-6.22-13.86-13.86V74.1c0-7.64,6.22-13.86,13.86-13.86h94.46
							c7.64,0,13.86,6.22,13.86,13.86v90.38C236.1,172.12,229.88,178.34,222.24,178.34z M127.78,69.61c-2.47,0-4.48,2.01-4.48,4.48
							v90.38c0,2.47,2.01,4.48,4.48,4.48h94.46c2.47,0,4.48-2.01,4.48-4.48V74.1c0-2.47-2.01-4.48-4.48-4.48H127.78z"/>
					</g>
					<g>
						<path fill="#464646" d="M384.22,178.34h-94.46c-7.64,0-13.86-6.22-13.86-13.86V74.1c0-7.64,6.22-13.86,13.86-13.86h94.46
							c7.64,0,13.86,6.22,13.86,13.86v90.38C398.08,172.12,391.86,178.34,384.22,178.34z M289.76,69.61c-2.47,0-4.48,2.01-4.48,4.48
							v90.38c0,2.47,2.01,4.48,4.48,4.48h94.46c2.47,0,4.48-2.01,4.48-4.48V74.1c0-2.47-2.01-4.48-4.48-4.48H289.76z"/>
					</g>
				</g>
				<g>
					<g>
						<path fill="#464646" d="M222.24,451.19h-94.46c-7.64,0-13.86-6.22-13.86-13.86v-90.39c0-7.64,6.22-13.86,13.86-13.86h94.46
							c7.64,0,13.86,6.22,13.86,13.86v90.39C236.1,444.97,229.88,451.19,222.24,451.19z M127.78,342.47c-2.47,0-4.48,2.01-4.48,4.48
							v90.39c0,2.47,2.01,4.48,4.48,4.48h94.46c2.47,0,4.48-2.01,4.48-4.48v-90.39c0-2.47-2.01-4.48-4.48-4.48H127.78z"/>
					</g>
					<g>
						<path fill="#464646" d="M384.22,451.19h-94.46c-7.64,0-13.86-6.22-13.86-13.86v-90.39c0-7.64,6.22-13.86,13.86-13.86h94.46
							c7.64,0,13.86,6.22,13.86,13.86v90.39C398.08,444.97,391.86,451.19,384.22,451.19z M289.76,342.47
							c-2.47,0-4.48,2.01-4.48,4.48v90.39c0,2.47,2.01,4.48,4.48,4.48h94.46c2.47,0,4.48-2.01,4.48-4.48v-90.39
							c0-2.47-2.01-4.48-4.48-4.48H289.76z"/>
					</g>
				</g>
			</g>
		</g>
	</g>
</g>
</svg>
